STARTFONT 2.1
COMMENT "Generated by fontforge, http://fontforge.sourceforge.net"
COMMENT "Copyright (c) 2011,  Aaron Christianson  ninjaaron@gmail.com"
COMMENT "licenced under the OFL 1.1"
FONT -aaron-bitocrafull-medium-r-normal--11-100-72-72-M-90-ISO10646-1
SIZE 10 72 72
FONTBOUNDINGBOX 6 11 0 -2
STARTPROPERTIES 25
FONTNAME_REGISTRY ""
FOUNDRY "aaron"
FAMILY_NAME "bitocrafull"
WEIGHT_NAME "medium"
SLANT "r"
SETWIDTH_NAME "normal"
ADD_STYLE_NAME ""
PIXEL_SIZE 11
POINT_SIZE 100
RESOLUTION_X 72
RESOLUTION_Y 72
SPACING "C"
AVERAGE_WIDTH 90
CHARSET_REGISTRY "ISO10646"
CHARSET_ENCODING "1"
COPYRIGHT "CC, Aaron Christianson"
FACE_NAME "bitocrafull"
WEIGHT 10
X_HEIGHT 6
QUAD_WIDTH 6
_ORIGINAL_FONT_NAME "bitocra"
_GBDFED_INFO "Edited with gbdfed 1.6."
DEFAULT_CHAR 63
FONT_DESCENT 2
FONT_ASCENT 8
ENDPROPERTIES
CHARS 455
STARTCHAR space
ENCODING 32
SWIDTH 600 0
DWIDTH 6 0
BBX 6 11 0 -2
BITMAP
00
00
00
00
00
00
00
00
00
00
00
ENDCHAR
STARTCHAR exclam
ENCODING 33
SWIDTH 600 0
DWIDTH 6 0
BBX 6 11 0 -2
BITMAP
00
00
00
20
20
20
20
00
20
00
00
ENDCHAR
STARTCHAR quotedbl
ENCODING 34
SWIDTH 600 0
DWIDTH 6 0
BBX 6 11 0 -2
BITMAP
00
00
50
50
00
00
00
00
00
00
00
ENDCHAR
STARTCHAR numbersign
ENCODING 35
SWIDTH 600 0
DWIDTH 6 0
BBX 6 11 0 -2
BITMAP
00
00
00
50
F8
50
F8
50
00
00
00
ENDCHAR
STARTCHAR dollar
ENCODING 36
SWIDTH 600 0
DWIDTH 6 0
BBX 6 11 0 -2
BITMAP
00
00
00
20
F8
A0
F8
28
F8
20
00
ENDCHAR
STARTCHAR percent
ENCODING 37
SWIDTH 600 0
DWIDTH 6 0
BBX 6 11 0 -2
BITMAP
00
00
00
C0
D8
30
60
D8
18
00
00
ENDCHAR
STARTCHAR ampersand
ENCODING 38
SWIDTH 600 0
DWIDTH 6 0
BBX 6 11 0 -2
BITMAP
00
00
00
70
40
E8
90
90
E8
00
00
ENDCHAR
STARTCHAR quotesingle
ENCODING 39
SWIDTH 600 0
DWIDTH 6 0
BBX 6 11 0 -2
BITMAP
00
00
60
40
00
00
00
00
00
00
00
ENDCHAR
STARTCHAR parenleft
ENCODING 40
SWIDTH 600 0
DWIDTH 6 0
BBX 6 11 0 -2
BITMAP
00
00
20
40
40
40
40
40
40
20
00
ENDCHAR
STARTCHAR parenright
ENCODING 41
SWIDTH 600 0
DWIDTH 6 0
BBX 6 11 0 -2
BITMAP
00
00
40
20
20
20
20
20
20
40
00
ENDCHAR
STARTCHAR asterisk
ENCODING 42
SWIDTH 600 0
DWIDTH 6 0
BBX 6 11 0 -2
BITMAP
00
00
00
20
A8
70
A8
20
00
00
00
ENDCHAR
STARTCHAR plus
ENCODING 43
SWIDTH 600 0
DWIDTH 6 0
BBX 6 11 0 -2
BITMAP
00
00
00
00
20
20
F8
20
20
00
00
ENDCHAR
STARTCHAR comma
ENCODING 44
SWIDTH 600 0
DWIDTH 6 0
BBX 6 11 0 -2
BITMAP
00
00
00
00
00
00
00
60
20
20
00
ENDCHAR
STARTCHAR hyphen
ENCODING 45
SWIDTH 600 0
DWIDTH 6 0
BBX 6 11 0 -2
BITMAP
00
00
00
00
00
00
F8
00
00
00
00
ENDCHAR
STARTCHAR period
ENCODING 46
SWIDTH 600 0
DWIDTH 6 0
BBX 6 11 0 -2
BITMAP
00
00
00
00
00
00
00
60
60
00
00
ENDCHAR
STARTCHAR slash
ENCODING 47
SWIDTH 600 0
DWIDTH 6 0
BBX 6 11 0 -2
BITMAP
00
00
10
10
20
20
40
40
80
80
00
ENDCHAR
STARTCHAR zero
ENCODING 48
SWIDTH 600 0
DWIDTH 6 0
BBX 6 11 0 -2
BITMAP
00
00
00
F0
90
B0
D0
90
F0
00
00
ENDCHAR
STARTCHAR one
ENCODING 49
SWIDTH 600 0
DWIDTH 6 0
BBX 6 11 0 -2
BITMAP
00
00
00
C0
40
40
50
50
F0
00
00
ENDCHAR
STARTCHAR two
ENCODING 50
SWIDTH 600 0
DWIDTH 6 0
BBX 6 11 0 -2
BITMAP
00
00
00
F0
10
F0
80
80
F0
00
00
ENDCHAR
STARTCHAR three
ENCODING 51
SWIDTH 600 0
DWIDTH 6 0
BBX 6 11 0 -2
BITMAP
00
00
00
F0
10
70
10
10
F0
00
00
ENDCHAR
STARTCHAR four
ENCODING 52
SWIDTH 600 0
DWIDTH 6 0
BBX 6 11 0 -2
BITMAP
00
00
00
80
A0
A0
F0
20
20
00
00
ENDCHAR
STARTCHAR five
ENCODING 53
SWIDTH 600 0
DWIDTH 6 0
BBX 6 11 0 -2
BITMAP
00
00
00
F0
80
F0
10
10
F0
00
00
ENDCHAR
STARTCHAR six
ENCODING 54
SWIDTH 600 0
DWIDTH 6 0
BBX 6 11 0 -2
BITMAP
00
00
00
C0
80
80
F0
90
F0
00
00
ENDCHAR
STARTCHAR seven
ENCODING 55
SWIDTH 600 0
DWIDTH 6 0
BBX 6 11 0 -2
BITMAP
00
00
00
F0
10
30
60
40
40
00
00
ENDCHAR
STARTCHAR eight
ENCODING 56
SWIDTH 600 0
DWIDTH 6 0
BBX 6 11 0 -2
BITMAP
00
00
00
70
50
F0
90
90
F0
00
00
ENDCHAR
STARTCHAR nine
ENCODING 57
SWIDTH 600 0
DWIDTH 6 0
BBX 6 11 0 -2
BITMAP
00
00
00
F0
90
F0
10
10
30
00
00
ENDCHAR
STARTCHAR colon
ENCODING 58
SWIDTH 600 0
DWIDTH 6 0
BBX 6 11 0 -2
BITMAP
00
00
00
00
60
60
00
60
60
00
00
ENDCHAR
STARTCHAR semicolon
ENCODING 59
SWIDTH 600 0
DWIDTH 6 0
BBX 6 11 0 -2
BITMAP
00
00
00
00
60
60
00
60
20
20
00
ENDCHAR
STARTCHAR less
ENCODING 60
SWIDTH 600 0
DWIDTH 6 0
BBX 6 11 0 -2
BITMAP
00
00
00
00
30
60
C0
60
30
00
00
ENDCHAR
STARTCHAR equal
ENCODING 61
SWIDTH 600 0
DWIDTH 6 0
BBX 6 11 0 -2
BITMAP
00
00
00
00
00
F0
00
F0
00
00
00
ENDCHAR
STARTCHAR greater
ENCODING 62
SWIDTH 600 0
DWIDTH 6 0
BBX 6 11 0 -2
BITMAP
00
00
00
00
C0
60
30
60
C0
00
00
ENDCHAR
STARTCHAR question
ENCODING 63
SWIDTH 600 0
DWIDTH 6 0
BBX 6 11 0 -2
BITMAP
00
00
00
F0
90
10
70
40
00
40
00
ENDCHAR
STARTCHAR at
ENCODING 64
SWIDTH 600 0
DWIDTH 6 0
BBX 6 11 0 -2
BITMAP
00
00
F8
88
08
08
E8
A8
F8
00
00
ENDCHAR
STARTCHAR A
ENCODING 65
SWIDTH 600 0
DWIDTH 6 0
BBX 6 11 0 -2
BITMAP
00
00
00
70
90
90
90
F0
90
00
00
ENDCHAR
STARTCHAR B
ENCODING 66
SWIDTH 600 0
DWIDTH 6 0
BBX 6 11 0 -2
BITMAP
00
00
00
E0
A0
F0
90
90
F0
00
00
ENDCHAR
STARTCHAR C
ENCODING 67
SWIDTH 600 0
DWIDTH 6 0
BBX 6 11 0 -2
BITMAP
00
00
00
70
80
80
80
80
F0
00
00
ENDCHAR
STARTCHAR D
ENCODING 68
SWIDTH 600 0
DWIDTH 6 0
BBX 6 11 0 -2
BITMAP
00
00
00
F0
48
48
48
48
F0
00
00
ENDCHAR
STARTCHAR E
ENCODING 69
SWIDTH 600 0
DWIDTH 6 0
BBX 6 11 0 -2
BITMAP
00
00
00
F0
80
E0
80
80
F0
00
00
ENDCHAR
STARTCHAR F
ENCODING 70
SWIDTH 600 0
DWIDTH 6 0
BBX 6 11 0 -2
BITMAP
00
00
00
F0
80
E0
80
80
80
00
00
ENDCHAR
STARTCHAR G
ENCODING 71
SWIDTH 600 0
DWIDTH 6 0
BBX 6 11 0 -2
BITMAP
00
00
00
70
80
80
B0
90
F0
00
00
ENDCHAR
STARTCHAR H
ENCODING 72
SWIDTH 600 0
DWIDTH 6 0
BBX 6 11 0 -2
BITMAP
00
00
00
90
90
90
F0
90
90
00
00
ENDCHAR
STARTCHAR I
ENCODING 73
SWIDTH 600 0
DWIDTH 6 0
BBX 6 11 0 -2
BITMAP
00
00
00
70
20
20
20
20
70
00
00
ENDCHAR
STARTCHAR J
ENCODING 74
SWIDTH 600 0
DWIDTH 6 0
BBX 6 11 0 -2
BITMAP
00
00
00
70
10
10
10
90
F0
00
00
ENDCHAR
STARTCHAR K
ENCODING 75
SWIDTH 600 0
DWIDTH 6 0
BBX 6 11 0 -2
BITMAP
00
00
00
90
90
90
E0
90
90
00
00
ENDCHAR
STARTCHAR L
ENCODING 76
SWIDTH 600 0
DWIDTH 6 0
BBX 6 11 0 -2
BITMAP
00
00
00
80
80
80
80
80
F0
00
00
ENDCHAR
STARTCHAR M
ENCODING 77
SWIDTH 600 0
DWIDTH 6 0
BBX 6 11 0 -2
BITMAP
00
00
00
88
D8
F8
A8
88
88
00
00
ENDCHAR
STARTCHAR N
ENCODING 78
SWIDTH 600 0
DWIDTH 6 0
BBX 6 11 0 -2
BITMAP
00
00
00
90
90
D0
F0
B0
90
00
00
ENDCHAR
STARTCHAR O
ENCODING 79
SWIDTH 600 0
DWIDTH 6 0
BBX 6 11 0 -2
BITMAP
00
00
00
F0
90
90
90
90
F0
00
00
ENDCHAR
STARTCHAR P
ENCODING 80
SWIDTH 600 0
DWIDTH 6 0
BBX 6 11 0 -2
BITMAP
00
00
00
F8
48
48
78
40
40
00
00
ENDCHAR
STARTCHAR Q
ENCODING 81
SWIDTH 600 0
DWIDTH 6 0
BBX 6 11 0 -2
BITMAP
00
00
00
70
90
90
90
90
E0
30
00
ENDCHAR
STARTCHAR R
ENCODING 82
SWIDTH 600 0
DWIDTH 6 0
BBX 6 11 0 -2
BITMAP
00
00
00
F0
90
90
E0
90
90
00
00
ENDCHAR
STARTCHAR S
ENCODING 83
SWIDTH 600 0
DWIDTH 6 0
BBX 6 11 0 -2
BITMAP
00
00
00
70
80
80
F0
10
F0
00
00
ENDCHAR
STARTCHAR T
ENCODING 84
SWIDTH 600 0
DWIDTH 6 0
BBX 6 11 0 -2
BITMAP
00
00
00
F8
A8
20
20
20
20
00
00
ENDCHAR
STARTCHAR U
ENCODING 85
SWIDTH 600 0
DWIDTH 6 0
BBX 6 11 0 -2
BITMAP
00
00
00
90
90
90
90
90
F0
00
00
ENDCHAR
STARTCHAR V
ENCODING 86
SWIDTH 600 0
DWIDTH 6 0
BBX 6 11 0 -2
BITMAP
00
00
00
90
90
90
B0
E0
C0
00
00
ENDCHAR
STARTCHAR W
ENCODING 87
SWIDTH 600 0
DWIDTH 6 0
BBX 6 11 0 -2
BITMAP
00
00
00
88
88
88
A8
F8
D8
00
00
ENDCHAR
STARTCHAR X
ENCODING 88
SWIDTH 600 0
DWIDTH 6 0
BBX 6 11 0 -2
BITMAP
00
00
00
90
90
60
60
90
90
00
00
ENDCHAR
STARTCHAR Y
ENCODING 89
SWIDTH 600 0
DWIDTH 6 0
BBX 6 11 0 -2
BITMAP
00
00
00
88
88
70
20
20
20
00
00
ENDCHAR
STARTCHAR Z
ENCODING 90
SWIDTH 600 0
DWIDTH 6 0
BBX 6 11 0 -2
BITMAP
00
00
00
F0
30
20
40
C0
F0
00
00
ENDCHAR
STARTCHAR bracketleft
ENCODING 91
SWIDTH 600 0
DWIDTH 6 0
BBX 6 11 0 -2
BITMAP
00
00
F8
A0
A0
A0
A0
A0
A0
F8
00
ENDCHAR
STARTCHAR backslash
ENCODING 92
SWIDTH 600 0
DWIDTH 6 0
BBX 6 11 0 -2
BITMAP
00
00
80
80
40
40
20
20
10
10
00
ENDCHAR
STARTCHAR bracketright
ENCODING 93
SWIDTH 600 0
DWIDTH 6 0
BBX 6 11 0 -2
BITMAP
00
00
F8
28
28
28
28
28
28
F8
00
ENDCHAR
STARTCHAR asciicircum
ENCODING 94
SWIDTH 600 0
DWIDTH 6 0
BBX 6 11 0 -2
BITMAP
00
00
00
20
70
D8
00
00
00
00
00
ENDCHAR
STARTCHAR underscore
ENCODING 95
SWIDTH 600 0
DWIDTH 6 0
BBX 6 11 0 -2
BITMAP
00
00
00
00
00
00
00
00
00
F8
00
ENDCHAR
STARTCHAR grave
ENCODING 96
SWIDTH 600 0
DWIDTH 6 0
BBX 6 11 0 -2
BITMAP
00
00
60
20
00
00
00
00
00
00
00
ENDCHAR
STARTCHAR a
ENCODING 97
SWIDTH 600 0
DWIDTH 6 0
BBX 6 11 0 -2
BITMAP
00
00
00
00
70
10
F0
90
F0
00
00
ENDCHAR
STARTCHAR b
ENCODING 98
SWIDTH 600 0
DWIDTH 6 0
BBX 6 11 0 -2
BITMAP
00
00
80
80
F0
90
90
90
F0
00
00
ENDCHAR
STARTCHAR c
ENCODING 99
SWIDTH 600 0
DWIDTH 6 0
BBX 6 11 0 -2
BITMAP
00
00
00
00
70
80
80
80
F0
00
00
ENDCHAR
STARTCHAR d
ENCODING 100
SWIDTH 600 0
DWIDTH 6 0
BBX 6 11 0 -2
BITMAP
00
00
10
10
F0
90
90
90
F0
00
00
ENDCHAR
STARTCHAR e
ENCODING 101
SWIDTH 600 0
DWIDTH 6 0
BBX 6 11 0 -2
BITMAP
00
00
00
00
F0
90
F0
80
F0
00
00
ENDCHAR
STARTCHAR f
ENCODING 102
SWIDTH 600 0
DWIDTH 6 0
BBX 6 11 0 -2
BITMAP
00
00
30
40
70
40
40
40
40
00
00
ENDCHAR
STARTCHAR g
ENCODING 103
SWIDTH 600 0
DWIDTH 6 0
BBX 6 11 0 -2
BITMAP
00
00
00
00
F0
90
90
F0
10
F0
00
ENDCHAR
STARTCHAR h
ENCODING 104
SWIDTH 600 0
DWIDTH 6 0
BBX 6 11 0 -2
BITMAP
00
00
80
80
F0
90
90
90
90
00
00
ENDCHAR
STARTCHAR i
ENCODING 105
SWIDTH 600 0
DWIDTH 6 0
BBX 6 11 0 -2
BITMAP
00
00
20
00
60
20
20
20
70
00
00
ENDCHAR
STARTCHAR j
ENCODING 106
SWIDTH 600 0
DWIDTH 6 0
BBX 6 11 0 -2
BITMAP
00
00
20
00
60
20
20
20
A0
E0
00
ENDCHAR
STARTCHAR k
ENCODING 107
SWIDTH 600 0
DWIDTH 6 0
BBX 6 11 0 -2
BITMAP
00
00
80
80
90
90
E0
90
90
00
00
ENDCHAR
STARTCHAR l
ENCODING 108
SWIDTH 600 0
DWIDTH 6 0
BBX 6 11 0 -2
BITMAP
00
00
60
20
20
20
20
20
30
00
00
ENDCHAR
STARTCHAR m
ENCODING 109
SWIDTH 600 0
DWIDTH 6 0
BBX 6 11 0 -2
BITMAP
00
00
00
00
F8
A8
A8
88
88
00
00
ENDCHAR
STARTCHAR n
ENCODING 110
SWIDTH 600 0
DWIDTH 6 0
BBX 6 11 0 -2
BITMAP
00
00
00
00
F0
90
90
90
90
00
00
ENDCHAR
STARTCHAR o
ENCODING 111
SWIDTH 600 0
DWIDTH 6 0
BBX 6 11 0 -2
BITMAP
00
00
00
00
F0
90
90
90
F0
00
00
ENDCHAR
STARTCHAR p
ENCODING 112
SWIDTH 600 0
DWIDTH 6 0
BBX 6 11 0 -2
BITMAP
00
00
00
00
F0
90
90
F0
80
80
00
ENDCHAR
STARTCHAR q
ENCODING 113
SWIDTH 600 0
DWIDTH 6 0
BBX 6 11 0 -2
BITMAP
00
00
00
00
F0
90
90
F0
10
10
00
ENDCHAR
STARTCHAR r
ENCODING 114
SWIDTH 600 0
DWIDTH 6 0
BBX 6 11 0 -2
BITMAP
00
00
00
00
F0
90
80
80
80
00
00
ENDCHAR
STARTCHAR s
ENCODING 115
SWIDTH 600 0
DWIDTH 6 0
BBX 6 11 0 -2
BITMAP
00
00
00
00
F0
80
F0
10
F0
00
00
ENDCHAR
STARTCHAR t
ENCODING 116
SWIDTH 600 0
DWIDTH 6 0
BBX 6 11 0 -2
BITMAP
00
00
40
40
70
40
40
50
70
00
00
ENDCHAR
STARTCHAR u
ENCODING 117
SWIDTH 600 0
DWIDTH 6 0
BBX 6 11 0 -2
BITMAP
00
00
00
00
90
90
90
90
F0
00
00
ENDCHAR
STARTCHAR v
ENCODING 118
SWIDTH 600 0
DWIDTH 6 0
BBX 6 11 0 -2
BITMAP
00
00
00
00
90
90
90
F0
60
00
00
ENDCHAR
STARTCHAR w
ENCODING 119
SWIDTH 600 0
DWIDTH 6 0
BBX 6 11 0 -2
BITMAP
00
00
00
00
88
88
A8
A8
F8
00
00
ENDCHAR
STARTCHAR x
ENCODING 120
SWIDTH 600 0
DWIDTH 6 0
BBX 6 11 0 -2
BITMAP
00
00
00
00
90
90
60
90
90
00
00
ENDCHAR
STARTCHAR y
ENCODING 121
SWIDTH 600 0
DWIDTH 6 0
BBX 6 11 0 -2
BITMAP
00
00
00
00
90
90
90
F0
10
F0
00
ENDCHAR
STARTCHAR z
ENCODING 122
SWIDTH 600 0
DWIDTH 6 0
BBX 6 11 0 -2
BITMAP
00
00
00
00
F0
10
60
80
F0
00
00
ENDCHAR
STARTCHAR braceleft
ENCODING 123
SWIDTH 600 0
DWIDTH 6 0
BBX 6 11 0 -2
BITMAP
00
00
30
20
20
60
20
20
20
30
00
ENDCHAR
STARTCHAR bar
ENCODING 124
SWIDTH 600 0
DWIDTH 6 0
BBX 6 11 0 -2
BITMAP
00
00
00
20
20
20
20
20
20
20
00
ENDCHAR
STARTCHAR braceright
ENCODING 125
SWIDTH 600 0
DWIDTH 6 0
BBX 6 11 0 -2
BITMAP
00
00
C0
40
40
60
40
40
40
C0
00
ENDCHAR
STARTCHAR asciitilde
ENCODING 126
SWIDTH 600 0
DWIDTH 6 0
BBX 6 11 0 -2
BITMAP
00
00
00
00
00
E8
B8
00
00
00
00
ENDCHAR
STARTCHAR uni0080
ENCODING 128
SWIDTH 600 0
DWIDTH 6 0
BBX 6 11 0 -2
BITMAP
00
00
00
00
00
00
00
00
00
00
00
ENDCHAR
STARTCHAR exclamdown
ENCODING 161
SWIDTH 600 0
DWIDTH 6 0
BBX 6 11 0 -2
BITMAP
00
00
00
20
00
20
20
20
20
20
00
ENDCHAR
STARTCHAR cent
ENCODING 162
SWIDTH 600 0
DWIDTH 6 0
BBX 6 11 0 -2
BITMAP
00
00
00
10
70
A8
A0
C8
70
40
00
ENDCHAR
STARTCHAR sterling
ENCODING 163
SWIDTH 600 0
DWIDTH 6 0
BBX 6 11 0 -2
BITMAP
00
00
00
38
40
40
F0
40
F8
00
00
ENDCHAR
STARTCHAR currency
ENCODING 164
SWIDTH 600 0
DWIDTH 6 0
BBX 6 11 0 -2
BITMAP
00
00
00
84
78
48
48
78
84
00
00
ENDCHAR
STARTCHAR yen
ENCODING 165
SWIDTH 600 0
DWIDTH 6 0
BBX 6 11 0 -2
BITMAP
00
00
00
88
50
20
70
20
70
20
00
ENDCHAR
STARTCHAR brokenbar
ENCODING 166
SWIDTH 600 0
DWIDTH 6 0
BBX 6 11 0 -2
BITMAP
00
00
00
20
20
20
20
20
20
20
00
ENDCHAR
STARTCHAR section
ENCODING 167
SWIDTH 600 0
DWIDTH 6 0
BBX 6 11 0 -2
BITMAP
00
00
00
00
70
40
A0
50
20
E0
00
ENDCHAR
STARTCHAR dieresis
ENCODING 168
SWIDTH 600 0
DWIDTH 6 0
BBX 6 11 0 -2
BITMAP
00
00
00
48
00
00
00
00
00
00
00
ENDCHAR
STARTCHAR copyright
ENCODING 169
SWIDTH 600 0
DWIDTH 6 0
BBX 6 11 0 -2
BITMAP
00
00
30
48
B4
C4
B4
48
30
00
00
ENDCHAR
STARTCHAR ordfeminine
ENCODING 170
SWIDTH 600 0
DWIDTH 6 0
BBX 6 11 0 -2
BITMAP
00
00
00
60
20
E0
A0
E0
00
00
00
ENDCHAR
STARTCHAR guillemotleft
ENCODING 171
SWIDTH 600 0
DWIDTH 6 0
BBX 6 11 0 -2
BITMAP
00
00
00
00
00
48
90
48
00
00
00
ENDCHAR
STARTCHAR logicalnot
ENCODING 172
SWIDTH 600 0
DWIDTH 6 0
BBX 6 11 0 -2
BITMAP
00
00
00
00
00
00
F8
08
08
00
00
ENDCHAR
STARTCHAR registered
ENCODING 174
SWIDTH 600 0
DWIDTH 6 0
BBX 6 11 0 -2
BITMAP
00
00
30
48
BC
B4
AC
48
30
00
00
ENDCHAR
STARTCHAR macron
ENCODING 175
SWIDTH 600 0
DWIDTH 6 0
BBX 6 11 0 -2
BITMAP
00
00
00
70
00
00
00
00
00
00
00
ENDCHAR
STARTCHAR degree
ENCODING 176
SWIDTH 600 0
DWIDTH 6 0
BBX 6 11 0 -2
BITMAP
00
00
00
40
A0
40
00
00
00
00
00
ENDCHAR
STARTCHAR plusminus
ENCODING 177
SWIDTH 600 0
DWIDTH 6 0
BBX 6 11 0 -2
BITMAP
00
00
00
20
70
20
00
70
00
00
00
ENDCHAR
STARTCHAR uni00B2
ENCODING 178
SWIDTH 600 0
DWIDTH 6 0
BBX 6 11 0 -2
BITMAP
00
00
F0
10
F0
80
F0
00
00
00
00
ENDCHAR
STARTCHAR uni00B3
ENCODING 179
SWIDTH 600 0
DWIDTH 6 0
BBX 6 11 0 -2
BITMAP
00
00
E0
20
60
20
E0
00
00
00
00
ENDCHAR
STARTCHAR acute
ENCODING 180
SWIDTH 600 0
DWIDTH 6 0
BBX 6 11 0 -2
BITMAP
00
20
40
00
00
00
00
00
00
00
00
ENDCHAR
STARTCHAR uni00B5
ENCODING 181
SWIDTH 600 0
DWIDTH 6 0
BBX 6 11 0 -2
BITMAP
00
00
00
00
90
90
90
B0
D0
80
80
ENDCHAR
STARTCHAR paragraph
ENCODING 182
SWIDTH 600 0
DWIDTH 6 0
BBX 6 11 0 -2
BITMAP
00
00
00
78
E8
E8
68
28
28
28
00
ENDCHAR
STARTCHAR periodcentered
ENCODING 183
SWIDTH 600 0
DWIDTH 6 0
BBX 6 11 0 -2
BITMAP
00
00
00
00
00
00
30
30
00
00
00
ENDCHAR
STARTCHAR cedilla
ENCODING 184
SWIDTH 600 0
DWIDTH 6 0
BBX 6 11 0 -2
BITMAP
00
00
00
00
00
00
20
10
70
00
00
ENDCHAR
STARTCHAR uni00B9
ENCODING 185
SWIDTH 600 0
DWIDTH 6 0
BBX 6 11 0 -2
BITMAP
00
00
00
C0
40
40
60
E0
00
00
00
ENDCHAR
STARTCHAR ordmasculine
ENCODING 186
SWIDTH 600 0
DWIDTH 6 0
BBX 6 11 0 -2
BITMAP
00
00
00
60
90
90
60
00
00
00
00
ENDCHAR
STARTCHAR guillemotright
ENCODING 187
SWIDTH 600 0
DWIDTH 6 0
BBX 6 11 0 -2
BITMAP
00
00
00
00
00
90
48
90
00
00
00
ENDCHAR
STARTCHAR onequarter
ENCODING 188
SWIDTH 600 0
DWIDTH 6 0
BBX 6 11 0 -2
BITMAP
00
00
40
C0
40
48
18
28
3C
08
00
ENDCHAR
STARTCHAR onehalf
ENCODING 189
SWIDTH 600 0
DWIDTH 6 0
BBX 6 11 0 -2
BITMAP
00
00
40
C0
40
5C
0C
10
1C
00
00
ENDCHAR
STARTCHAR threequarters
ENCODING 190
SWIDTH 600 0
DWIDTH 6 0
BBX 6 11 0 -2
BITMAP
00
00
C0
20
40
28
D8
28
3C
08
00
ENDCHAR
STARTCHAR questiondown
ENCODING 191
SWIDTH 600 0
DWIDTH 6 0
BBX 6 11 0 -2
BITMAP
00
00
00
20
00
20
E0
80
90
F0
00
ENDCHAR
STARTCHAR Agrave
ENCODING 192
SWIDTH 600 0
DWIDTH 6 0
BBX 6 11 0 -2
BITMAP
00
40
20
70
90
90
90
F0
90
00
00
ENDCHAR
STARTCHAR Aacute
ENCODING 193
SWIDTH 600 0
DWIDTH 6 0
BBX 6 11 0 -2
BITMAP
00
10
20
70
90
90
90
F0
90
00
00
ENDCHAR
STARTCHAR Acircumflex
ENCODING 194
SWIDTH 600 0
DWIDTH 6 0
BBX 6 11 0 -2
BITMAP
00
60
90
60
90
90
90
F0
90
00
00
ENDCHAR
STARTCHAR Atilde
ENCODING 195
SWIDTH 600 0
DWIDTH 6 0
BBX 6 11 0 -2
BITMAP
00
50
A0
70
90
90
90
F0
90
00
00
ENDCHAR
STARTCHAR Adieresis
ENCODING 196
SWIDTH 600 0
DWIDTH 6 0
BBX 6 11 0 -2
BITMAP
00
90
00
70
90
90
90
F0
90
00
00
ENDCHAR
STARTCHAR Aring
ENCODING 197
SWIDTH 600 0
DWIDTH 6 0
BBX 6 11 0 -2
BITMAP
20
50
20
70
90
90
90
F0
90
00
00
ENDCHAR
STARTCHAR AE
ENCODING 198
SWIDTH 600 0
DWIDTH 6 0
BBX 6 11 0 -2
BITMAP
00
00
00
78
A0
B0
A0
E0
B8
00
00
ENDCHAR
STARTCHAR Ccedilla
ENCODING 199
SWIDTH 600 0
DWIDTH 6 0
BBX 6 11 0 -2
BITMAP
00
00
00
70
80
80
80
80
F0
20
60
ENDCHAR
STARTCHAR Egrave
ENCODING 200
SWIDTH 600 0
DWIDTH 6 0
BBX 6 11 0 -2
BITMAP
00
40
20
F0
80
E0
80
80
F0
00
00
ENDCHAR
STARTCHAR Eacute
ENCODING 201
SWIDTH 600 0
DWIDTH 6 0
BBX 6 11 0 -2
BITMAP
00
20
40
F0
80
E0
80
80
F0
00
00
ENDCHAR
STARTCHAR Ecircumflex
ENCODING 202
SWIDTH 600 0
DWIDTH 6 0
BBX 6 11 0 -2
BITMAP
00
60
90
70
80
80
E0
80
F0
00
00
ENDCHAR
STARTCHAR Edieresis
ENCODING 203
SWIDTH 600 0
DWIDTH 6 0
BBX 6 11 0 -2
BITMAP
00
90
00
F0
80
E0
80
80
F0
00
00
ENDCHAR
STARTCHAR Igrave
ENCODING 204
SWIDTH 600 0
DWIDTH 6 0
BBX 6 11 0 -2
BITMAP
00
40
20
70
20
20
20
20
70
00
00
ENDCHAR
STARTCHAR Iacute
ENCODING 205
SWIDTH 600 0
DWIDTH 6 0
BBX 6 11 0 -2
BITMAP
00
10
20
70
20
20
20
20
70
00
00
ENDCHAR
STARTCHAR Icircumflex
ENCODING 206
SWIDTH 600 0
DWIDTH 6 0
BBX 6 11 0 -2
BITMAP
00
20
50
00
70
20
20
20
70
00
00
ENDCHAR
STARTCHAR Idieresis
ENCODING 207
SWIDTH 600 0
DWIDTH 6 0
BBX 6 11 0 -2
BITMAP
00
50
00
70
20
20
20
20
70
00
00
ENDCHAR
STARTCHAR Eth
ENCODING 208
SWIDTH 600 0
DWIDTH 6 0
BBX 6 11 0 -2
BITMAP
00
00
00
F0
48
E8
48
48
F0
00
00
ENDCHAR
STARTCHAR Ntilde
ENCODING 209
SWIDTH 600 0
DWIDTH 6 0
BBX 6 11 0 -2
BITMAP
00
50
A0
90
90
D0
F0
B0
90
00
00
ENDCHAR
STARTCHAR Ograve
ENCODING 210
SWIDTH 600 0
DWIDTH 6 0
BBX 6 11 0 -2
BITMAP
00
40
20
F0
90
90
90
90
F0
00
00
ENDCHAR
STARTCHAR Oacute
ENCODING 211
SWIDTH 600 0
DWIDTH 6 0
BBX 6 11 0 -2
BITMAP
00
20
40
F0
90
90
90
90
F0
00
00
ENDCHAR
STARTCHAR Ocircumflex
ENCODING 212
SWIDTH 600 0
DWIDTH 6 0
BBX 6 11 0 -2
BITMAP
00
60
90
60
90
90
90
90
F0
00
00
ENDCHAR
STARTCHAR Otilde
ENCODING 213
SWIDTH 600 0
DWIDTH 6 0
BBX 6 11 0 -2
BITMAP
00
50
A0
70
90
90
90
90
F0
00
00
ENDCHAR
STARTCHAR Odieresis
ENCODING 214
SWIDTH 600 0
DWIDTH 6 0
BBX 6 11 0 -2
BITMAP
00
90
00
F0
90
90
90
90
F0
00
00
ENDCHAR
STARTCHAR multiply
ENCODING 215
SWIDTH 600 0
DWIDTH 6 0
BBX 6 11 0 -2
BITMAP
00
00
00
00
50
20
50
00
00
00
00
ENDCHAR
STARTCHAR Oslash
ENCODING 216
SWIDTH 600 0
DWIDTH 6 0
BBX 6 11 0 -2
BITMAP
00
00
10
F0
B0
B0
D0
D0
F0
80
00
ENDCHAR
STARTCHAR Ugrave
ENCODING 217
SWIDTH 600 0
DWIDTH 6 0
BBX 6 11 0 -2
BITMAP
00
40
20
90
90
90
90
90
F0
00
00
ENDCHAR
STARTCHAR Uacute
ENCODING 218
SWIDTH 600 0
DWIDTH 6 0
BBX 6 11 0 -2
BITMAP
00
20
40
90
90
90
90
90
F0
00
00
ENDCHAR
STARTCHAR Ucircumflex
ENCODING 219
SWIDTH 600 0
DWIDTH 6 0
BBX 6 11 0 -2
BITMAP
00
60
90
00
90
90
90
90
F0
00
00
ENDCHAR
STARTCHAR Udieresis
ENCODING 220
SWIDTH 600 0
DWIDTH 6 0
BBX 6 11 0 -2
BITMAP
00
90
00
90
90
90
90
90
F0
00
00
ENDCHAR
STARTCHAR Yacute
ENCODING 221
SWIDTH 600 0
DWIDTH 6 0
BBX 6 11 0 -2
BITMAP
00
10
20
88
88
70
20
20
20
00
00
ENDCHAR
STARTCHAR Thorn
ENCODING 222
SWIDTH 600 0
DWIDTH 6 0
BBX 6 11 0 -2
BITMAP
00
00
80
80
F0
90
90
F0
80
80
00
ENDCHAR
STARTCHAR germandbls
ENCODING 223
SWIDTH 600 0
DWIDTH 6 0
BBX 6 11 0 -2
BITMAP
00
00
E0
A0
A0
90
90
90
B0
80
00
ENDCHAR
STARTCHAR agrave
ENCODING 224
SWIDTH 600 0
DWIDTH 6 0
BBX 6 11 0 -2
BITMAP
00
00
40
20
70
10
F0
90
F0
00
00
ENDCHAR
STARTCHAR aacute
ENCODING 225
SWIDTH 600 0
DWIDTH 6 0
BBX 6 11 0 -2
BITMAP
00
00
10
20
70
10
F0
90
F0
00
00
ENDCHAR
STARTCHAR acircumflex
ENCODING 226
SWIDTH 600 0
DWIDTH 6 0
BBX 6 11 0 -2
BITMAP
00
20
50
00
70
10
F0
90
F0
00
00
ENDCHAR
STARTCHAR atilde
ENCODING 227
SWIDTH 600 0
DWIDTH 6 0
BBX 6 11 0 -2
BITMAP
00
50
A0
00
70
10
F0
90
F0
00
00
ENDCHAR
STARTCHAR adieresis
ENCODING 228
SWIDTH 600 0
DWIDTH 6 0
BBX 6 11 0 -2
BITMAP
00
00
50
00
70
10
F0
90
F0
00
00
ENDCHAR
STARTCHAR aring
ENCODING 229
SWIDTH 600 0
DWIDTH 6 0
BBX 6 11 0 -2
BITMAP
00
20
50
20
70
10
F0
90
F0
00
00
ENDCHAR
STARTCHAR ae
ENCODING 230
SWIDTH 600 0
DWIDTH 6 0
BBX 6 11 0 -2
BITMAP
00
00
00
00
78
28
F8
A0
F8
00
00
ENDCHAR
STARTCHAR ccedilla
ENCODING 231
SWIDTH 600 0
DWIDTH 6 0
BBX 6 11 0 -2
BITMAP
00
00
00
00
70
80
80
80
F0
20
60
ENDCHAR
STARTCHAR egrave
ENCODING 232
SWIDTH 600 0
DWIDTH 6 0
BBX 6 11 0 -2
BITMAP
00
00
40
20
F0
90
F0
80
F0
00
00
ENDCHAR
STARTCHAR eacute
ENCODING 233
SWIDTH 600 0
DWIDTH 6 0
BBX 6 11 0 -2
BITMAP
00
00
20
40
F0
90
F0
80
F0
00
00
ENDCHAR
STARTCHAR ecircumflex
ENCODING 234
SWIDTH 600 0
DWIDTH 6 0
BBX 6 11 0 -2
BITMAP
00
60
90
00
F0
90
F0
80
F0
00
00
ENDCHAR
STARTCHAR edieresis
ENCODING 235
SWIDTH 600 0
DWIDTH 6 0
BBX 6 11 0 -2
BITMAP
00
00
90
00
F0
90
F0
80
F0
00
00
ENDCHAR
STARTCHAR igrave
ENCODING 236
SWIDTH 600 0
DWIDTH 6 0
BBX 6 11 0 -2
BITMAP
00
40
20
00
60
20
20
20
70
00
00
ENDCHAR
STARTCHAR iacute
ENCODING 237
SWIDTH 600 0
DWIDTH 6 0
BBX 6 11 0 -2
BITMAP
00
10
20
00
60
20
20
20
70
00
00
ENDCHAR
STARTCHAR icircumflex
ENCODING 238
SWIDTH 600 0
DWIDTH 6 0
BBX 6 11 0 -2
BITMAP
00
20
50
00
60
20
20
20
70
00
00
ENDCHAR
STARTCHAR idieresis
ENCODING 239
SWIDTH 600 0
DWIDTH 6 0
BBX 6 11 0 -2
BITMAP
00
00
50
00
60
20
20
20
70
00
00
ENDCHAR
STARTCHAR eth
ENCODING 240
SWIDTH 600 0
DWIDTH 6 0
BBX 6 11 0 -2
BITMAP
00
00
20
18
30
10
F0
90
F0
00
00
ENDCHAR
STARTCHAR ntilde
ENCODING 241
SWIDTH 600 0
DWIDTH 6 0
BBX 6 11 0 -2
BITMAP
00
50
A0
00
F0
90
90
90
90
00
00
ENDCHAR
STARTCHAR ograve
ENCODING 242
SWIDTH 600 0
DWIDTH 6 0
BBX 6 11 0 -2
BITMAP
00
00
40
20
F0
90
90
90
F0
00
00
ENDCHAR
STARTCHAR oacute
ENCODING 243
SWIDTH 600 0
DWIDTH 6 0
BBX 6 11 0 -2
BITMAP
00
00
20
40
F0
90
90
90
F0
00
00
ENDCHAR
STARTCHAR ocircumflex
ENCODING 244
SWIDTH 600 0
DWIDTH 6 0
BBX 6 11 0 -2
BITMAP
00
60
90
00
F0
90
90
90
F0
00
00
ENDCHAR
STARTCHAR otilde
ENCODING 245
SWIDTH 600 0
DWIDTH 6 0
BBX 6 11 0 -2
BITMAP
00
50
A0
00
F0
90
90
90
F0
00
00
ENDCHAR
STARTCHAR odieresis
ENCODING 246
SWIDTH 600 0
DWIDTH 6 0
BBX 6 11 0 -2
BITMAP
00
00
90
00
F0
90
90
90
F0
00
00
ENDCHAR
STARTCHAR divide
ENCODING 247
SWIDTH 600 0
DWIDTH 6 0
BBX 6 11 0 -2
BITMAP
00
00
00
20
00
F8
00
20
00
00
00
ENDCHAR
STARTCHAR oslash
ENCODING 248
SWIDTH 600 0
DWIDTH 6 0
BBX 6 11 0 -2
BITMAP
00
00
00
10
F0
B0
90
D0
F0
80
00
ENDCHAR
STARTCHAR ugrave
ENCODING 249
SWIDTH 600 0
DWIDTH 6 0
BBX 6 11 0 -2
BITMAP
00
00
40
20
90
90
90
90
F0
00
00
ENDCHAR
STARTCHAR uacute
ENCODING 250
SWIDTH 600 0
DWIDTH 6 0
BBX 6 11 0 -2
BITMAP
00
00
20
40
90
90
90
90
F0
00
00
ENDCHAR
STARTCHAR ucircumflex
ENCODING 251
SWIDTH 600 0
DWIDTH 6 0
BBX 6 11 0 -2
BITMAP
00
60
90
00
90
90
90
90
F0
00
00
ENDCHAR
STARTCHAR udieresis
ENCODING 252
SWIDTH 600 0
DWIDTH 6 0
BBX 6 11 0 -2
BITMAP
00
00
90
00
90
90
90
90
F0
00
00
ENDCHAR
STARTCHAR yacute
ENCODING 253
SWIDTH 600 0
DWIDTH 6 0
BBX 6 11 0 -2
BITMAP
00
00
20
40
90
90
90
F0
10
F0
00
ENDCHAR
STARTCHAR thorn
ENCODING 254
SWIDTH 600 0
DWIDTH 6 0
BBX 6 11 0 -2
BITMAP
00
00
00
80
80
F0
90
F0
80
80
00
ENDCHAR
STARTCHAR ydieresis
ENCODING 255
SWIDTH 600 0
DWIDTH 6 0
BBX 6 11 0 -2
BITMAP
00
00
90
00
90
90
90
F0
10
F0
00
ENDCHAR
STARTCHAR Amacron
ENCODING 256
SWIDTH 600 0
DWIDTH 6 0
BBX 6 11 0 -2
BITMAP
00
70
00
70
90
90
90
F0
90
00
00
ENDCHAR
STARTCHAR amacron
ENCODING 257
SWIDTH 600 0
DWIDTH 6 0
BBX 6 11 0 -2
BITMAP
00
00
70
00
70
10
F0
90
F0
00
00
ENDCHAR
STARTCHAR Abreve
ENCODING 258
SWIDTH 600 0
DWIDTH 6 0
BBX 6 11 0 -2
BITMAP
00
90
60
70
90
90
90
F0
90
00
00
ENDCHAR
STARTCHAR abreve
ENCODING 259
SWIDTH 600 0
DWIDTH 6 0
BBX 6 11 0 -2
BITMAP
00
50
20
00
70
10
F0
90
F0
00
00
ENDCHAR
STARTCHAR Aogonek
ENCODING 260
SWIDTH 600 0
DWIDTH 6 0
BBX 6 11 0 -2
BITMAP
00
00
00
70
90
90
90
F0
90
20
30
ENDCHAR
STARTCHAR aogonek
ENCODING 261
SWIDTH 600 0
DWIDTH 6 0
BBX 6 11 0 -2
BITMAP
00
00
00
00
70
10
F0
90
F0
20
30
ENDCHAR
STARTCHAR Cacute
ENCODING 262
SWIDTH 600 0
DWIDTH 6 0
BBX 6 11 0 -2
BITMAP
00
10
20
70
80
80
80
80
F0
00
00
ENDCHAR
STARTCHAR cacute
ENCODING 263
SWIDTH 600 0
DWIDTH 6 0
BBX 6 11 0 -2
BITMAP
00
00
10
20
70
80
80
80
F0
00
00
ENDCHAR
STARTCHAR Ccircumflex
ENCODING 264
SWIDTH 600 0
DWIDTH 6 0
BBX 6 11 0 -2
BITMAP
00
20
50
70
80
80
80
80
F0
00
00
ENDCHAR
STARTCHAR ccircumflex
ENCODING 265
SWIDTH 600 0
DWIDTH 6 0
BBX 6 11 0 -2
BITMAP
00
20
50
00
70
80
80
80
F0
00
00
ENDCHAR
STARTCHAR Cdotaccent
ENCODING 266
SWIDTH 600 0
DWIDTH 6 0
BBX 6 11 0 -2
BITMAP
00
20
00
70
80
80
80
80
F0
00
00
ENDCHAR
STARTCHAR cdotaccent
ENCODING 267
SWIDTH 600 0
DWIDTH 6 0
BBX 6 11 0 -2
BITMAP
00
00
20
00
70
80
80
80
F0
00
00
ENDCHAR
STARTCHAR Ccaron
ENCODING 268
SWIDTH 600 0
DWIDTH 6 0
BBX 6 11 0 -2
BITMAP
00
50
20
70
80
80
80
80
F0
00
00
ENDCHAR
STARTCHAR ccaron
ENCODING 269
SWIDTH 600 0
DWIDTH 6 0
BBX 6 11 0 -2
BITMAP
00
00
50
20
70
80
80
80
F0
00
00
ENDCHAR
STARTCHAR Dcaron
ENCODING 270
SWIDTH 600 0
DWIDTH 6 0
BBX 6 11 0 -2
BITMAP
00
50
20
F0
48
48
48
48
F0
00
00
ENDCHAR
STARTCHAR dcaron
ENCODING 271
SWIDTH 600 0
DWIDTH 6 0
BBX 6 11 0 -2
BITMAP
00
00
14
14
10
F0
90
90
F0
00
00
ENDCHAR
STARTCHAR Dcroat
ENCODING 272
SWIDTH 600 0
DWIDTH 6 0
BBX 6 11 0 -2
BITMAP
00
00
00
F0
48
E8
48
48
F0
00
00
ENDCHAR
STARTCHAR dcroat
ENCODING 273
SWIDTH 600 0
DWIDTH 6 0
BBX 6 11 0 -2
BITMAP
00
00
10
38
10
F0
90
90
F0
00
00
ENDCHAR
STARTCHAR Emacron
ENCODING 274
SWIDTH 600 0
DWIDTH 6 0
BBX 6 11 0 -2
BITMAP
00
F0
00
F0
80
E0
80
80
F0
00
00
ENDCHAR
STARTCHAR emacron
ENCODING 275
SWIDTH 600 0
DWIDTH 6 0
BBX 6 11 0 -2
BITMAP
00
00
F0
00
F0
90
F0
80
F0
00
00
ENDCHAR
STARTCHAR Ebreve
ENCODING 276
SWIDTH 600 0
DWIDTH 6 0
BBX 6 11 0 -2
BITMAP
00
90
60
F0
80
E0
80
80
F0
00
00
ENDCHAR
STARTCHAR ebreve
ENCODING 277
SWIDTH 600 0
DWIDTH 6 0
BBX 6 11 0 -2
BITMAP
00
90
60
00
F0
90
F0
80
F0
00
00
ENDCHAR
STARTCHAR Edotaccent
ENCODING 278
SWIDTH 600 0
DWIDTH 6 0
BBX 6 11 0 -2
BITMAP
00
20
00
F0
80
E0
80
80
F0
00
00
ENDCHAR
STARTCHAR edotaccent
ENCODING 279
SWIDTH 600 0
DWIDTH 6 0
BBX 6 11 0 -2
BITMAP
00
00
20
00
F0
90
F0
80
F0
00
00
ENDCHAR
STARTCHAR Eogonek
ENCODING 280
SWIDTH 600 0
DWIDTH 6 0
BBX 6 11 0 -2
BITMAP
00
00
00
F0
80
E0
80
80
F0
20
30
ENDCHAR
STARTCHAR eogonek
ENCODING 281
SWIDTH 600 0
DWIDTH 6 0
BBX 6 11 0 -2
BITMAP
00
00
00
00
F0
90
F0
80
F0
20
30
ENDCHAR
STARTCHAR Ecaron
ENCODING 282
SWIDTH 600 0
DWIDTH 6 0
BBX 6 11 0 -2
BITMAP
00
A0
40
F0
80
E0
80
80
F0
00
00
ENDCHAR
STARTCHAR ecaron
ENCODING 283
SWIDTH 600 0
DWIDTH 6 0
BBX 6 11 0 -2
BITMAP
00
00
A0
40
F0
90
F0
80
F0
00
00
ENDCHAR
STARTCHAR Gcircumflex
ENCODING 284
SWIDTH 600 0
DWIDTH 6 0
BBX 6 11 0 -2
BITMAP
00
20
50
70
80
80
B0
90
F0
00
00
ENDCHAR
STARTCHAR gcircumflex
ENCODING 285
SWIDTH 600 0
DWIDTH 6 0
BBX 6 11 0 -2
BITMAP
00
20
50
00
F0
90
90
F0
10
F0
00
ENDCHAR
STARTCHAR Gbreve
ENCODING 286
SWIDTH 600 0
DWIDTH 6 0
BBX 6 11 0 -2
BITMAP
00
90
60
70
80
80
B0
90
F0
00
00
ENDCHAR
STARTCHAR gbreve
ENCODING 287
SWIDTH 600 0
DWIDTH 6 0
BBX 6 11 0 -2
BITMAP
00
90
60
00
F0
90
90
F0
10
F0
00
ENDCHAR
STARTCHAR Gdotaccent
ENCODING 288
SWIDTH 600 0
DWIDTH 6 0
BBX 6 11 0 -2
BITMAP
00
20
00
70
80
80
B0
90
F0
00
00
ENDCHAR
STARTCHAR gdotaccent
ENCODING 289
SWIDTH 600 0
DWIDTH 6 0
BBX 6 11 0 -2
BITMAP
00
00
20
00
F0
90
90
F0
10
F0
00
ENDCHAR
STARTCHAR Gcommaaccent
ENCODING 290
SWIDTH 600 0
DWIDTH 6 0
BBX 6 11 0 -2
BITMAP
00
00
00
70
80
80
B0
90
F0
20
40
ENDCHAR
STARTCHAR gcommaaccent
ENCODING 291
SWIDTH 600 0
DWIDTH 6 0
BBX 6 11 0 -2
BITMAP
00
00
10
20
F0
90
90
F0
10
F0
00
ENDCHAR
STARTCHAR Hcircumflex
ENCODING 292
SWIDTH 600 0
DWIDTH 6 0
BBX 6 11 0 -2
BITMAP
00
60
90
00
90
90
F0
90
90
00
00
ENDCHAR
STARTCHAR hcircumflex
ENCODING 293
SWIDTH 600 0
DWIDTH 6 0
BBX 6 11 0 -2
BITMAP
00
40
A0
80
F0
90
90
90
90
00
00
ENDCHAR
STARTCHAR Hbar
ENCODING 294
SWIDTH 600 0
DWIDTH 6 0
BBX 6 11 0 -2
BITMAP
00
00
00
48
FC
48
78
48
48
00
00
ENDCHAR
STARTCHAR hbar
ENCODING 295
SWIDTH 600 0
DWIDTH 6 0
BBX 6 11 0 -2
BITMAP
00
00
40
F0
40
78
48
48
48
00
00
ENDCHAR
STARTCHAR Itilde
ENCODING 296
SWIDTH 600 0
DWIDTH 6 0
BBX 6 11 0 -2
BITMAP
00
50
A0
70
20
20
20
20
70
00
00
ENDCHAR
STARTCHAR itilde
ENCODING 297
SWIDTH 600 0
DWIDTH 6 0
BBX 6 11 0 -2
BITMAP
00
50
A0
00
60
20
20
20
70
00
00
ENDCHAR
STARTCHAR Imacron
ENCODING 298
SWIDTH 600 0
DWIDTH 6 0
BBX 6 11 0 -2
BITMAP
00
70
00
70
20
20
20
20
70
00
00
ENDCHAR
STARTCHAR imacron
ENCODING 299
SWIDTH 600 0
DWIDTH 6 0
BBX 6 11 0 -2
BITMAP
00
00
70
00
60
20
20
20
70
00
00
ENDCHAR
STARTCHAR Ibreve
ENCODING 300
SWIDTH 600 0
DWIDTH 6 0
BBX 6 11 0 -2
BITMAP
00
50
20
70
20
20
20
20
70
00
00
ENDCHAR
STARTCHAR ibreve
ENCODING 301
SWIDTH 600 0
DWIDTH 6 0
BBX 6 11 0 -2
BITMAP
00
50
20
00
60
20
20
20
70
00
00
ENDCHAR
STARTCHAR Iogonek
ENCODING 302
SWIDTH 600 0
DWIDTH 6 0
BBX 6 11 0 -2
BITMAP
00
00
00
70
20
20
20
20
70
20
30
ENDCHAR
STARTCHAR iogonek
ENCODING 303
SWIDTH 600 0
DWIDTH 6 0
BBX 6 11 0 -2
BITMAP
00
00
20
00
60
20
20
20
70
20
30
ENDCHAR
STARTCHAR Idotaccent
ENCODING 304
SWIDTH 600 0
DWIDTH 6 0
BBX 6 11 0 -2
BITMAP
00
20
00
70
20
20
20
20
70
00
00
ENDCHAR
STARTCHAR dotlessi
ENCODING 305
SWIDTH 600 0
DWIDTH 6 0
BBX 6 11 0 -2
BITMAP
00
00
00
00
60
20
20
20
70
00
00
ENDCHAR
STARTCHAR IJ
ENCODING 306
SWIDTH 600 0
DWIDTH 6 0
BBX 6 11 0 -2
BITMAP
00
00
00
F8
48
48
48
48
E8
38
00
ENDCHAR
STARTCHAR ij
ENCODING 307
SWIDTH 600 0
DWIDTH 6 0
BBX 6 11 0 -2
BITMAP
00
00
48
00
D8
48
48
48
E8
38
00
ENDCHAR
STARTCHAR Jcircumflex
ENCODING 308
SWIDTH 600 0
DWIDTH 6 0
BBX 6 11 0 -2
BITMAP
00
20
50
70
10
10
10
90
F0
00
00
ENDCHAR
STARTCHAR jcircumflex
ENCODING 309
SWIDTH 600 0
DWIDTH 6 0
BBX 6 11 0 -2
BITMAP
00
10
28
00
30
10
10
10
50
70
00
ENDCHAR
STARTCHAR Kcommaaccent
ENCODING 310
SWIDTH 600 0
DWIDTH 6 0
BBX 6 11 0 -2
BITMAP
00
00
00
90
90
90
E0
90
90
20
60
ENDCHAR
STARTCHAR kcommaaccent
ENCODING 311
SWIDTH 600 0
DWIDTH 6 0
BBX 6 11 0 -2
BITMAP
00
00
80
80
90
90
E0
90
90
20
60
ENDCHAR
STARTCHAR kgreenlandic
ENCODING 312
SWIDTH 600 0
DWIDTH 6 0
BBX 6 11 0 -2
BITMAP
00
00
00
00
90
90
E0
90
90
00
00
ENDCHAR
STARTCHAR Lacute
ENCODING 313
SWIDTH 600 0
DWIDTH 6 0
BBX 6 11 0 -2
BITMAP
00
20
40
80
80
80
80
80
F0
00
00
ENDCHAR
STARTCHAR lacute
ENCODING 314
SWIDTH 600 0
DWIDTH 6 0
BBX 6 11 0 -2
BITMAP
00
10
60
20
20
20
20
20
30
00
00
ENDCHAR
STARTCHAR Lcommaaccent
ENCODING 315
SWIDTH 600 0
DWIDTH 6 0
BBX 6 11 0 -2
BITMAP
00
00
00
80
80
80
80
80
F0
20
60
ENDCHAR
STARTCHAR lcommaaccent
ENCODING 316
SWIDTH 600 0
DWIDTH 6 0
BBX 6 11 0 -2
BITMAP
00
00
60
20
20
20
20
20
30
20
60
ENDCHAR
STARTCHAR Lcaron
ENCODING 317
SWIDTH 600 0
DWIDTH 6 0
BBX 6 11 0 -2
BITMAP
00
00
00
B0
A0
80
80
80
F0
00
00
ENDCHAR
STARTCHAR lcaron
ENCODING 318
SWIDTH 600 0
DWIDTH 6 0
BBX 6 11 0 -2
BITMAP
00
00
6C
28
20
20
20
20
30
00
00
ENDCHAR
STARTCHAR Ldot
ENCODING 319
SWIDTH 600 0
DWIDTH 6 0
BBX 6 11 0 -2
BITMAP
00
00
00
80
80
A0
80
80
F0
00
00
ENDCHAR
STARTCHAR ldot
ENCODING 320
SWIDTH 600 0
DWIDTH 6 0
BBX 6 11 0 -2
BITMAP
00
00
60
20
20
28
20
20
30
00
00
ENDCHAR
STARTCHAR Lslash
ENCODING 321
SWIDTH 600 0
DWIDTH 6 0
BBX 6 11 0 -2
BITMAP
00
00
00
40
40
60
C0
40
78
00
00
ENDCHAR
STARTCHAR lslash
ENCODING 322
SWIDTH 600 0
DWIDTH 6 0
BBX 6 11 0 -2
BITMAP
00
00
60
20
30
60
20
20
30
00
00
ENDCHAR
STARTCHAR Nacute
ENCODING 323
SWIDTH 600 0
DWIDTH 6 0
BBX 6 11 0 -2
BITMAP
00
20
40
90
90
D0
F0
B0
90
00
00
ENDCHAR
STARTCHAR nacute
ENCODING 324
SWIDTH 600 0
DWIDTH 6 0
BBX 6 11 0 -2
BITMAP
00
00
20
40
F0
90
90
90
90
00
00
ENDCHAR
STARTCHAR Ncommaaccent
ENCODING 325
SWIDTH 600 0
DWIDTH 6 0
BBX 6 11 0 -2
BITMAP
00
00
00
90
90
D0
F0
B0
90
20
60
ENDCHAR
STARTCHAR ncommaaccent
ENCODING 326
SWIDTH 600 0
DWIDTH 6 0
BBX 6 11 0 -2
BITMAP
00
00
00
00
F0
90
90
90
90
20
60
ENDCHAR
STARTCHAR Ncaron
ENCODING 327
SWIDTH 600 0
DWIDTH 6 0
BBX 6 11 0 -2
BITMAP
00
50
20
90
90
D0
F0
B0
90
00
00
ENDCHAR
STARTCHAR ncaron
ENCODING 328
SWIDTH 600 0
DWIDTH 6 0
BBX 6 11 0 -2
BITMAP
00
00
A0
40
F0
90
90
90
90
00
00
ENDCHAR
STARTCHAR napostrophe
ENCODING 329
SWIDTH 600 0
DWIDTH 6 0
BBX 6 11 0 -2
BITMAP
00
C0
80
00
F0
90
90
90
90
00
00
ENDCHAR
STARTCHAR Eng
ENCODING 330
SWIDTH 600 0
DWIDTH 6 0
BBX 6 11 0 -2
BITMAP
00
00
00
B0
D0
90
90
90
90
10
70
ENDCHAR
STARTCHAR eng
ENCODING 331
SWIDTH 600 0
DWIDTH 6 0
BBX 6 11 0 -2
BITMAP
00
00
00
00
B0
D0
90
90
90
10
70
ENDCHAR
STARTCHAR Omacron
ENCODING 332
SWIDTH 600 0
DWIDTH 6 0
BBX 6 11 0 -2
BITMAP
00
F0
00
F0
90
90
90
90
F0
00
00
ENDCHAR
STARTCHAR omacron
ENCODING 333
SWIDTH 600 0
DWIDTH 6 0
BBX 6 11 0 -2
BITMAP
00
00
F0
00
F0
90
90
90
F0
00
00
ENDCHAR
STARTCHAR Obreve
ENCODING 334
SWIDTH 600 0
DWIDTH 6 0
BBX 6 11 0 -2
BITMAP
00
90
60
F0
90
90
90
90
F0
00
00
ENDCHAR
STARTCHAR obreve
ENCODING 335
SWIDTH 600 0
DWIDTH 6 0
BBX 6 11 0 -2
BITMAP
00
90
60
00
F0
90
90
90
F0
00
00
ENDCHAR
STARTCHAR Ohungarumlaut
ENCODING 336
SWIDTH 600 0
DWIDTH 6 0
BBX 6 11 0 -2
BITMAP
00
50
A0
F0
90
90
90
90
F0
00
00
ENDCHAR
STARTCHAR ohungarumlaut
ENCODING 337
SWIDTH 600 0
DWIDTH 6 0
BBX 6 11 0 -2
BITMAP
00
00
50
A0
F0
90
90
90
F0
00
00
ENDCHAR
STARTCHAR OE
ENCODING 338
SWIDTH 600 0
DWIDTH 6 0
BBX 6 11 0 -2
BITMAP
00
00
00
F8
A0
B0
A0
A0
F8
00
00
ENDCHAR
STARTCHAR oe
ENCODING 339
SWIDTH 600 0
DWIDTH 6 0
BBX 6 11 0 -2
BITMAP
00
00
00
00
F8
A8
B8
A0
F8
00
00
ENDCHAR
STARTCHAR Racute
ENCODING 340
SWIDTH 600 0
DWIDTH 6 0
BBX 6 11 0 -2
BITMAP
00
20
40
F0
90
90
E0
B0
90
00
00
ENDCHAR
STARTCHAR racute
ENCODING 341
SWIDTH 600 0
DWIDTH 6 0
BBX 6 11 0 -2
BITMAP
00
00
20
40
F0
90
80
80
80
00
00
ENDCHAR
STARTCHAR Rcommaaccent
ENCODING 342
SWIDTH 600 0
DWIDTH 6 0
BBX 6 11 0 -2
BITMAP
00
00
00
F0
90
90
E0
90
90
20
60
ENDCHAR
STARTCHAR rcommaaccent
ENCODING 343
SWIDTH 600 0
DWIDTH 6 0
BBX 6 11 0 -2
BITMAP
00
00
00
00
F0
90
80
80
80
40
C0
ENDCHAR
STARTCHAR Rcaron
ENCODING 344
SWIDTH 600 0
DWIDTH 6 0
BBX 6 11 0 -2
BITMAP
00
A0
40
F0
90
90
E0
90
90
00
00
ENDCHAR
STARTCHAR rcaron
ENCODING 345
SWIDTH 600 0
DWIDTH 6 0
BBX 6 11 0 -2
BITMAP
00
00
A0
40
F0
90
80
80
80
00
00
ENDCHAR
STARTCHAR Sacute
ENCODING 346
SWIDTH 600 0
DWIDTH 6 0
BBX 6 11 0 -2
BITMAP
00
10
20
70
80
80
F0
10
F0
00
00
ENDCHAR
STARTCHAR sacute
ENCODING 347
SWIDTH 600 0
DWIDTH 6 0
BBX 6 11 0 -2
BITMAP
00
00
20
40
F0
80
F0
10
F0
00
00
ENDCHAR
STARTCHAR Scircumflex
ENCODING 348
SWIDTH 600 0
DWIDTH 6 0
BBX 6 11 0 -2
BITMAP
00
20
50
70
80
80
F0
10
F0
00
00
ENDCHAR
STARTCHAR scircumflex
ENCODING 349
SWIDTH 600 0
DWIDTH 6 0
BBX 6 11 0 -2
BITMAP
00
40
A0
00
F0
80
F0
10
F0
00
00
ENDCHAR
STARTCHAR Scedilla
ENCODING 350
SWIDTH 600 0
DWIDTH 6 0
BBX 6 11 0 -2
BITMAP
00
00
00
70
80
80
F0
10
F0
20
60
ENDCHAR
STARTCHAR scedilla
ENCODING 351
SWIDTH 600 0
DWIDTH 6 0
BBX 6 11 0 -2
BITMAP
00
00
00
00
F0
80
F0
10
F0
20
60
ENDCHAR
STARTCHAR Scaron
ENCODING 352
SWIDTH 600 0
DWIDTH 6 0
BBX 6 11 0 -2
BITMAP
00
50
20
70
80
80
F0
10
F0
00
00
ENDCHAR
STARTCHAR scaron
ENCODING 353
SWIDTH 600 0
DWIDTH 6 0
BBX 6 11 0 -2
BITMAP
00
00
50
20
F0
80
F0
10
F0
00
00
ENDCHAR
STARTCHAR Tcommaaccent
ENCODING 354
SWIDTH 600 0
DWIDTH 6 0
BBX 6 11 0 -2
BITMAP
00
00
00
F8
A8
20
20
20
20
10
30
ENDCHAR
STARTCHAR tcommaaccent
ENCODING 355
SWIDTH 600 0
DWIDTH 6 0
BBX 6 11 0 -2
BITMAP
00
00
40
40
70
40
40
50
70
20
60
ENDCHAR
STARTCHAR Tcaron
ENCODING 356
SWIDTH 600 0
DWIDTH 6 0
BBX 6 11 0 -2
BITMAP
00
50
20
F8
A8
20
20
20
20
00
00
ENDCHAR
STARTCHAR tcaron
ENCODING 357
SWIDTH 600 0
DWIDTH 6 0
BBX 6 11 0 -2
BITMAP
00
00
98
90
E0
80
80
A0
E0
00
00
ENDCHAR
STARTCHAR Tbar
ENCODING 358
SWIDTH 600 0
DWIDTH 6 0
BBX 6 11 0 -2
BITMAP
00
00
00
F8
A8
20
70
20
20
00
00
ENDCHAR
STARTCHAR tbar
ENCODING 359
SWIDTH 600 0
DWIDTH 6 0
BBX 6 11 0 -2
BITMAP
00
00
40
E0
40
E0
40
50
70
00
00
ENDCHAR
STARTCHAR Utilde
ENCODING 360
SWIDTH 600 0
DWIDTH 6 0
BBX 6 11 0 -2
BITMAP
00
50
A0
90
90
90
90
90
F0
00
00
ENDCHAR
STARTCHAR utilde
ENCODING 361
SWIDTH 600 0
DWIDTH 6 0
BBX 6 11 0 -2
BITMAP
00
00
50
A0
90
90
90
90
F0
00
00
ENDCHAR
STARTCHAR Umacron
ENCODING 362
SWIDTH 600 0
DWIDTH 6 0
BBX 6 11 0 -2
BITMAP
00
F0
00
90
90
90
90
90
F0
00
00
ENDCHAR
STARTCHAR umacron
ENCODING 363
SWIDTH 600 0
DWIDTH 6 0
BBX 6 11 0 -2
BITMAP
00
00
F0
00
90
90
90
90
F0
00
00
ENDCHAR
STARTCHAR Ubreve
ENCODING 364
SWIDTH 600 0
DWIDTH 6 0
BBX 6 11 0 -2
BITMAP
00
90
60
90
90
90
90
90
F0
00
00
ENDCHAR
STARTCHAR ubreve
ENCODING 365
SWIDTH 600 0
DWIDTH 6 0
BBX 6 11 0 -2
BITMAP
00
90
60
00
90
90
90
90
F0
00
00
ENDCHAR
STARTCHAR Uring
ENCODING 366
SWIDTH 600 0
DWIDTH 6 0
BBX 6 11 0 -2
BITMAP
00
20
50
A8
88
88
88
88
F8
00
00
ENDCHAR
STARTCHAR uring
ENCODING 367
SWIDTH 600 0
DWIDTH 6 0
BBX 6 11 0 -2
BITMAP
00
20
50
20
90
90
90
90
F0
00
00
ENDCHAR
STARTCHAR Uhungarumlaut
ENCODING 368
SWIDTH 600 0
DWIDTH 6 0
BBX 6 11 0 -2
BITMAP
00
28
50
88
88
88
88
88
70
00
00
ENDCHAR
STARTCHAR uhungarumlaut
ENCODING 369
SWIDTH 600 0
DWIDTH 6 0
BBX 6 11 0 -2
BITMAP
00
00
28
50
90
90
90
90
F0
00
00
ENDCHAR
STARTCHAR Uogonek
ENCODING 370
SWIDTH 600 0
DWIDTH 6 0
BBX 6 11 0 -2
BITMAP
00
00
00
90
90
90
90
90
F0
40
60
ENDCHAR
STARTCHAR uogonek
ENCODING 371
SWIDTH 600 0
DWIDTH 6 0
BBX 6 11 0 -2
BITMAP
00
00
00
00
90
90
90
90
F0
40
60
ENDCHAR
STARTCHAR Wcircumflex
ENCODING 372
SWIDTH 600 0
DWIDTH 6 0
BBX 6 11 0 -2
BITMAP
00
20
50
88
88
88
A8
F8
D8
00
00
ENDCHAR
STARTCHAR wcircumflex
ENCODING 373
SWIDTH 600 0
DWIDTH 6 0
BBX 6 11 0 -2
BITMAP
00
00
20
50
88
88
A8
A8
F8
00
00
ENDCHAR
STARTCHAR Ycircumflex
ENCODING 374
SWIDTH 600 0
DWIDTH 6 0
BBX 6 11 0 -2
BITMAP
00
20
50
00
88
88
70
20
20
00
00
ENDCHAR
STARTCHAR ycircumflex
ENCODING 375
SWIDTH 600 0
DWIDTH 6 0
BBX 6 11 0 -2
BITMAP
00
20
50
00
90
90
90
F0
10
F0
00
ENDCHAR
STARTCHAR Ydieresis
ENCODING 376
SWIDTH 600 0
DWIDTH 6 0
BBX 6 11 0 -2
BITMAP
00
50
00
88
88
70
20
20
20
00
00
ENDCHAR
STARTCHAR Zacute
ENCODING 377
SWIDTH 600 0
DWIDTH 6 0
BBX 6 11 0 -2
BITMAP
00
10
20
F0
30
20
40
C0
F0
00
00
ENDCHAR
STARTCHAR zacute
ENCODING 378
SWIDTH 600 0
DWIDTH 6 0
BBX 6 11 0 -2
BITMAP
00
00
10
20
F0
10
60
80
F0
00
00
ENDCHAR
STARTCHAR Zdotaccent
ENCODING 379
SWIDTH 600 0
DWIDTH 6 0
BBX 6 11 0 -2
BITMAP
00
20
00
F0
30
20
40
C0
F0
00
00
ENDCHAR
STARTCHAR zdotaccent
ENCODING 380
SWIDTH 600 0
DWIDTH 6 0
BBX 6 11 0 -2
BITMAP
00
00
20
00
F0
10
60
80
F0
00
00
ENDCHAR
STARTCHAR Zcaron
ENCODING 381
SWIDTH 600 0
DWIDTH 6 0
BBX 6 11 0 -2
BITMAP
00
50
20
F0
30
20
40
C0
F0
00
00
ENDCHAR
STARTCHAR zcaron
ENCODING 382
SWIDTH 600 0
DWIDTH 6 0
BBX 6 11 0 -2
BITMAP
00
00
50
20
F0
10
60
80
F0
00
00
ENDCHAR
STARTCHAR longs
ENCODING 383
SWIDTH 600 0
DWIDTH 6 0
BBX 6 11 0 -2
BITMAP
00
00
70
40
C0
40
40
40
40
00
00
ENDCHAR
STARTCHAR uni01F4
ENCODING 500
SWIDTH 600 0
DWIDTH 6 0
BBX 6 11 0 -2
BITMAP
00
20
40
70
80
80
B0
90
F0
00
00
ENDCHAR
STARTCHAR uni01F5
ENCODING 501
SWIDTH 600 0
DWIDTH 6 0
BBX 6 11 0 -2
BITMAP
00
00
10
20
F0
90
90
F0
10
F0
00
ENDCHAR
STARTCHAR uni0259
ENCODING 601
SWIDTH 600 0
DWIDTH 6 0
BBX 6 11 0 -2
BITMAP
00
00
00
00
F0
10
70
90
E0
00
00
ENDCHAR
STARTCHAR uni02BE
ENCODING 702
SWIDTH 600 0
DWIDTH 6 0
BBX 6 11 0 -2
BITMAP
00
00
00
C0
20
20
C0
00
00
00
00
ENDCHAR
STARTCHAR uni02BF
ENCODING 703
SWIDTH 600 0
DWIDTH 6 0
BBX 6 11 0 -2
BITMAP
00
00
00
60
80
80
60
00
00
00
00
ENDCHAR
STARTCHAR uni02D2
ENCODING 722
SWIDTH 600 0
DWIDTH 6 0
BBX 6 11 0 -2
BITMAP
00
00
00
C0
20
20
C0
00
00
00
00
ENDCHAR
STARTCHAR uni02D3
ENCODING 723
SWIDTH 600 0
DWIDTH 6 0
BBX 6 11 0 -2
BITMAP
00
00
00
60
80
80
60
00
00
00
00
ENDCHAR
STARTCHAR rho
ENCODING 961
SWIDTH 600 0
DWIDTH 6 0
BBX 6 11 0 -2
BITMAP
00
00
00
00
60
90
90
90
E0
80
80
ENDCHAR
STARTCHAR afii57799
ENCODING 1456
SWIDTH 600 0
DWIDTH 6 0
BBX 6 11 0 -2
BITMAP
00
00
00
00
00
00
00
00
00
10
10
ENDCHAR
STARTCHAR afii57801
ENCODING 1457
SWIDTH 600 0
DWIDTH 6 0
BBX 6 11 0 -2
BITMAP
00
00
00
00
00
00
00
00
00
A8
48
ENDCHAR
STARTCHAR afii57800
ENCODING 1458
SWIDTH 600 0
DWIDTH 6 0
BBX 6 11 0 -2
BITMAP
00
00
00
00
00
00
00
00
00
E8
08
ENDCHAR
STARTCHAR afii57802
ENCODING 1459
SWIDTH 600 0
DWIDTH 6 0
BBX 6 11 0 -2
BITMAP
00
00
00
00
00
00
00
00
00
E8
48
ENDCHAR
STARTCHAR afii57793
ENCODING 1460
SWIDTH 600 0
DWIDTH 6 0
BBX 6 11 0 -2
BITMAP
00
00
00
00
00
00
00
00
00
10
00
ENDCHAR
STARTCHAR afii57794
ENCODING 1461
SWIDTH 600 0
DWIDTH 6 0
BBX 6 11 0 -2
BITMAP
00
00
00
00
00
00
00
00
00
28
00
ENDCHAR
STARTCHAR afii57795
ENCODING 1462
SWIDTH 600 0
DWIDTH 6 0
BBX 6 11 0 -2
BITMAP
00
00
00
00
00
00
00
00
00
28
10
ENDCHAR
STARTCHAR afii57798
ENCODING 1463
SWIDTH 600 0
DWIDTH 6 0
BBX 6 11 0 -2
BITMAP
00
00
00
00
00
00
00
00
00
38
00
ENDCHAR
STARTCHAR afii57797
ENCODING 1464
SWIDTH 600 0
DWIDTH 6 0
BBX 6 11 0 -2
BITMAP
00
00
00
00
00
00
00
00
00
70
20
ENDCHAR
STARTCHAR afii57806
ENCODING 1465
SWIDTH 600 0
DWIDTH 6 0
BBX 6 11 0 -2
BITMAP
00
80
00
00
00
00
00
00
00
00
00
ENDCHAR
STARTCHAR uni05BA
ENCODING 1466
SWIDTH 600 0
DWIDTH 6 0
BBX 6 11 0 -2
BITMAP
00
80
00
00
00
00
00
00
00
00
00
ENDCHAR
STARTCHAR afii57796
ENCODING 1467
SWIDTH 600 0
DWIDTH 6 0
BBX 6 11 0 -2
BITMAP
00
00
00
00
00
00
00
00
00
80
28
ENDCHAR
STARTCHAR afii57807
ENCODING 1468
SWIDTH 600 0
DWIDTH 6 0
BBX 6 11 0 -2
BITMAP
00
00
00
00
00
20
00
00
00
00
00
ENDCHAR
STARTCHAR afii57839
ENCODING 1469
SWIDTH 600 0
DWIDTH 6 0
BBX 6 11 0 -2
BITMAP
00
00
00
00
00
00
00
00
00
10
10
ENDCHAR
STARTCHAR afii57645
ENCODING 1470
SWIDTH 600 0
DWIDTH 6 0
BBX 6 11 0 -2
BITMAP
00
00
00
78
00
00
00
00
00
00
00
ENDCHAR
STARTCHAR afii57841
ENCODING 1471
SWIDTH 600 0
DWIDTH 6 0
BBX 6 11 0 -2
BITMAP
00
70
00
00
00
00
00
00
00
00
00
ENDCHAR
STARTCHAR afii57842
ENCODING 1472
SWIDTH 600 0
DWIDTH 6 0
BBX 6 11 0 -2
BITMAP
00
00
00
20
20
20
20
20
20
20
00
ENDCHAR
STARTCHAR afii57804
ENCODING 1473
SWIDTH 600 0
DWIDTH 6 0
BBX 6 11 0 -2
BITMAP
00
08
00
00
00
00
00
00
00
00
00
ENDCHAR
STARTCHAR afii57803
ENCODING 1474
SWIDTH 600 0
DWIDTH 6 0
BBX 6 11 0 -2
BITMAP
00
80
00
00
00
00
00
00
00
00
00
ENDCHAR
STARTCHAR afii57658
ENCODING 1475
SWIDTH 600 0
DWIDTH 6 0
BBX 6 11 0 -2
BITMAP
00
00
00
30
30
00
00
30
30
00
00
ENDCHAR
STARTCHAR uni05C4
ENCODING 1476
SWIDTH 600 0
DWIDTH 6 0
BBX 6 11 0 -2
BITMAP
00
00
00
30
20
20
20
30
00
00
00
ENDCHAR
STARTCHAR uni05C5
ENCODING 1477
SWIDTH 600 0
DWIDTH 6 0
BBX 6 11 0 -2
BITMAP
00
00
00
00
00
00
00
00
00
00
00
ENDCHAR
STARTCHAR afii57664
ENCODING 1488
SWIDTH 600 0
DWIDTH 6 0
BBX 6 11 0 -2
BITMAP
00
00
00
48
68
30
58
48
00
00
00
ENDCHAR
STARTCHAR afii57665
ENCODING 1489
SWIDTH 600 0
DWIDTH 6 0
BBX 6 11 0 -2
BITMAP
00
00
00
78
08
08
08
7C
00
00
00
ENDCHAR
STARTCHAR afii57666
ENCODING 1490
SWIDTH 600 0
DWIDTH 6 0
BBX 6 11 0 -2
BITMAP
00
00
00
18
08
08
38
28
00
00
00
ENDCHAR
STARTCHAR afii57667
ENCODING 1491
SWIDTH 600 0
DWIDTH 6 0
BBX 6 11 0 -2
BITMAP
00
00
00
7C
08
08
08
08
00
00
00
ENDCHAR
STARTCHAR afii57668
ENCODING 1492
SWIDTH 600 0
DWIDTH 6 0
BBX 6 11 0 -2
BITMAP
00
00
00
78
08
48
48
48
00
00
00
ENDCHAR
STARTCHAR afii57669
ENCODING 1493
SWIDTH 600 0
DWIDTH 6 0
BBX 6 11 0 -2
BITMAP
00
00
00
30
10
10
10
10
00
00
00
ENDCHAR
STARTCHAR afii57670
ENCODING 1494
SWIDTH 600 0
DWIDTH 6 0
BBX 6 11 0 -2
BITMAP
00
00
00
30
18
10
10
10
00
00
00
ENDCHAR
STARTCHAR afii57671
ENCODING 1495
SWIDTH 600 0
DWIDTH 6 0
BBX 6 11 0 -2
BITMAP
00
00
00
78
48
48
48
48
00
00
00
ENDCHAR
STARTCHAR afii57672
ENCODING 1496
SWIDTH 600 0
DWIDTH 6 0
BBX 6 11 0 -2
BITMAP
00
00
00
48
58
48
48
78
00
00
00
ENDCHAR
STARTCHAR afii57673
ENCODING 1497
SWIDTH 600 0
DWIDTH 6 0
BBX 6 11 0 -2
BITMAP
00
00
00
30
10
10
00
00
00
00
00
ENDCHAR
STARTCHAR afii57674
ENCODING 1498
SWIDTH 600 0
DWIDTH 6 0
BBX 6 11 0 -2
BITMAP
00
00
00
78
08
08
08
08
08
08
00
ENDCHAR
STARTCHAR afii57675
ENCODING 1499
SWIDTH 600 0
DWIDTH 6 0
BBX 6 11 0 -2
BITMAP
00
00
00
78
08
08
08
78
00
00
00
ENDCHAR
STARTCHAR afii57676
ENCODING 1500
SWIDTH 600 0
DWIDTH 6 0
BBX 6 11 0 -2
BITMAP
00
40
40
78
08
18
30
20
00
00
00
ENDCHAR
STARTCHAR afii57677
ENCODING 1501
SWIDTH 600 0
DWIDTH 6 0
BBX 6 11 0 -2
BITMAP
00
00
00
70
48
48
48
78
00
00
00
ENDCHAR
STARTCHAR afii57678
ENCODING 1502
SWIDTH 600 0
DWIDTH 6 0
BBX 6 11 0 -2
BITMAP
00
00
00
B8
E8
C8
88
B8
00
00
00
ENDCHAR
STARTCHAR afii57679
ENCODING 1503
SWIDTH 600 0
DWIDTH 6 0
BBX 6 11 0 -2
BITMAP
00
00
00
30
10
10
10
10
10
10
00
ENDCHAR
STARTCHAR afii57680
ENCODING 1504
SWIDTH 600 0
DWIDTH 6 0
BBX 6 11 0 -2
BITMAP
00
00
00
30
10
10
10
30
00
00
00
ENDCHAR
STARTCHAR afii57681
ENCODING 1505
SWIDTH 600 0
DWIDTH 6 0
BBX 6 11 0 -2
BITMAP
00
00
00
F8
48
48
58
70
00
00
00
ENDCHAR
STARTCHAR afii57682
ENCODING 1506
SWIDTH 600 0
DWIDTH 6 0
BBX 6 11 0 -2
BITMAP
00
00
00
48
48
68
38
F0
00
00
00
ENDCHAR
STARTCHAR afii57683
ENCODING 1507
SWIDTH 600 0
DWIDTH 6 0
BBX 6 11 0 -2
BITMAP
00
00
00
78
48
68
08
08
08
08
00
ENDCHAR
STARTCHAR afii57684
ENCODING 1508
SWIDTH 600 0
DWIDTH 6 0
BBX 6 11 0 -2
BITMAP
00
00
00
78
48
68
08
78
00
00
00
ENDCHAR
STARTCHAR afii57685
ENCODING 1509
SWIDTH 600 0
DWIDTH 6 0
BBX 6 11 0 -2
BITMAP
00
00
00
48
68
30
10
10
10
10
00
ENDCHAR
STARTCHAR afii57686
ENCODING 1510
SWIDTH 600 0
DWIDTH 6 0
BBX 6 11 0 -2
BITMAP
00
00
00
48
68
30
18
78
00
00
00
ENDCHAR
STARTCHAR afii57687
ENCODING 1511
SWIDTH 600 0
DWIDTH 6 0
BBX 6 11 0 -2
BITMAP
00
00
00
F8
08
48
58
40
40
40
00
ENDCHAR
STARTCHAR afii57688
ENCODING 1512
SWIDTH 600 0
DWIDTH 6 0
BBX 6 11 0 -2
BITMAP
00
00
00
78
08
08
08
08
00
00
00
ENDCHAR
STARTCHAR afii57689
ENCODING 1513
SWIDTH 600 0
DWIDTH 6 0
BBX 6 11 0 -2
BITMAP
00
00
00
A8
A8
E8
88
F0
00
00
00
ENDCHAR
STARTCHAR afii57690
ENCODING 1514
SWIDTH 600 0
DWIDTH 6 0
BBX 6 11 0 -2
BITMAP
00
00
00
F8
48
48
48
C8
00
00
00
ENDCHAR
STARTCHAR afii57716
ENCODING 1520
SWIDTH 600 0
DWIDTH 6 0
BBX 6 11 0 -2
BITMAP
00
00
00
D8
48
48
48
48
00
00
00
ENDCHAR
STARTCHAR afii57717
ENCODING 1521
SWIDTH 600 0
DWIDTH 6 0
BBX 6 11 0 -2
BITMAP
00
00
00
D8
48
48
08
08
00
00
00
ENDCHAR
STARTCHAR afii57718
ENCODING 1522
SWIDTH 600 0
DWIDTH 6 0
BBX 6 11 0 -2
BITMAP
00
00
00
D8
48
48
00
00
00
00
00
ENDCHAR
STARTCHAR uni05F3
ENCODING 1523
SWIDTH 600 0
DWIDTH 6 0
BBX 6 11 0 -2
BITMAP
00
00
08
18
10
00
00
00
00
00
00
ENDCHAR
STARTCHAR uni05F4
ENCODING 1524
SWIDTH 600 0
DWIDTH 6 0
BBX 6 11 0 -2
BITMAP
00
00
48
D8
90
00
00
00
00
00
00
ENDCHAR
STARTCHAR uni1E06
ENCODING 7686
SWIDTH 600 0
DWIDTH 6 0
BBX 6 11 0 -2
BITMAP
00
00
00
E0
A0
F0
90
90
F0
00
F0
ENDCHAR
STARTCHAR uni1E07
ENCODING 7687
SWIDTH 600 0
DWIDTH 6 0
BBX 6 11 0 -2
BITMAP
00
00
80
80
F0
90
90
90
F0
00
F0
ENDCHAR
STARTCHAR uni1E0C
ENCODING 7692
SWIDTH 600 0
DWIDTH 6 0
BBX 6 11 0 -2
BITMAP
00
00
00
F0
48
48
48
48
F0
00
20
ENDCHAR
STARTCHAR uni1E0D
ENCODING 7693
SWIDTH 600 0
DWIDTH 6 0
BBX 6 11 0 -2
BITMAP
00
00
10
10
F0
90
90
90
F0
00
20
ENDCHAR
STARTCHAR uni1E0E
ENCODING 7694
SWIDTH 600 0
DWIDTH 6 0
BBX 6 11 0 -2
BITMAP
00
00
00
F0
48
48
48
48
F0
00
78
ENDCHAR
STARTCHAR uni1E0F
ENCODING 7695
SWIDTH 600 0
DWIDTH 6 0
BBX 6 11 0 -2
BITMAP
00
00
10
10
F0
90
90
90
F0
00
F0
ENDCHAR
STARTCHAR uni1E20
ENCODING 7712
SWIDTH 600 0
DWIDTH 6 0
BBX 6 11 0 -2
BITMAP
00
70
00
70
80
80
B0
90
F0
00
00
ENDCHAR
STARTCHAR uni1E21
ENCODING 7713
SWIDTH 600 0
DWIDTH 6 0
BBX 6 11 0 -2
BITMAP
00
00
F0
00
F0
90
90
F0
10
F0
00
ENDCHAR
STARTCHAR uni1E24
ENCODING 7716
SWIDTH 600 0
DWIDTH 6 0
BBX 6 11 0 -2
BITMAP
00
00
00
90
90
90
F0
90
90
00
20
ENDCHAR
STARTCHAR uni1E25
ENCODING 7717
SWIDTH 600 0
DWIDTH 6 0
BBX 6 11 0 -2
BITMAP
00
00
80
80
F0
90
90
90
90
00
20
ENDCHAR
STARTCHAR uni1E2A
ENCODING 7722
SWIDTH 600 0
DWIDTH 6 0
BBX 6 11 0 -2
BITMAP
00
00
00
90
90
F0
90
90
00
90
60
ENDCHAR
STARTCHAR uni1E2B
ENCODING 7723
SWIDTH 600 0
DWIDTH 6 0
BBX 6 11 0 -2
BITMAP
00
00
80
80
F0
90
90
90
00
90
60
ENDCHAR
STARTCHAR uni1E32
ENCODING 7730
SWIDTH 600 0
DWIDTH 6 0
BBX 6 11 0 -2
BITMAP
00
00
00
90
90
90
E0
90
90
00
20
ENDCHAR
STARTCHAR uni1E33
ENCODING 7731
SWIDTH 600 0
DWIDTH 6 0
BBX 6 11 0 -2
BITMAP
00
00
80
80
90
90
E0
90
90
00
20
ENDCHAR
STARTCHAR uni1E34
ENCODING 7732
SWIDTH 600 0
DWIDTH 6 0
BBX 6 11 0 -2
BITMAP
00
00
00
90
90
90
E0
90
90
00
F0
ENDCHAR
STARTCHAR uni1E35
ENCODING 7733
SWIDTH 600 0
DWIDTH 6 0
BBX 6 11 0 -2
BITMAP
00
00
80
80
90
90
E0
90
90
00
F0
ENDCHAR
STARTCHAR uni1E62
ENCODING 7778
SWIDTH 600 0
DWIDTH 6 0
BBX 6 11 0 -2
BITMAP
00
00
00
70
80
80
F0
10
F0
00
20
ENDCHAR
STARTCHAR uni1E63
ENCODING 7779
SWIDTH 600 0
DWIDTH 6 0
BBX 6 11 0 -2
BITMAP
00
00
00
00
F0
80
F0
10
F0
00
20
ENDCHAR
STARTCHAR uni1E6C
ENCODING 7788
SWIDTH 600 0
DWIDTH 6 0
BBX 6 11 0 -2
BITMAP
00
00
00
F8
A8
20
20
20
20
00
20
ENDCHAR
STARTCHAR uni1E6D
ENCODING 7789
SWIDTH 600 0
DWIDTH 6 0
BBX 6 11 0 -2
BITMAP
00
00
40
40
70
40
40
50
70
00
20
ENDCHAR
STARTCHAR uni1E6E
ENCODING 7790
SWIDTH 600 0
DWIDTH 6 0
BBX 6 11 0 -2
BITMAP
00
00
00
F8
A8
20
20
20
20
00
70
ENDCHAR
STARTCHAR uni1E6F
ENCODING 7791
SWIDTH 600 0
DWIDTH 6 0
BBX 6 11 0 -2
BITMAP
00
00
40
40
70
40
40
50
70
00
70
ENDCHAR
STARTCHAR uni1E92
ENCODING 7826
SWIDTH 600 0
DWIDTH 6 0
BBX 6 11 0 -2
BITMAP
00
00
00
F0
30
20
40
C0
F0
00
20
ENDCHAR
STARTCHAR uni1E93
ENCODING 7827
SWIDTH 600 0
DWIDTH 6 0
BBX 6 11 0 -2
BITMAP
00
00
00
00
F0
10
60
80
F0
00
20
ENDCHAR
STARTCHAR quotedblleft
ENCODING 8220
SWIDTH 600 0
DWIDTH 6 0
BBX 6 11 0 -2
BITMAP
00
00
A0
F0
00
00
00
00
00
00
00
ENDCHAR
STARTCHAR quotedblright
ENCODING 8221
SWIDTH 600 0
DWIDTH 6 0
BBX 6 11 0 -2
BITMAP
00
00
F0
50
00
00
00
00
00
00
00
ENDCHAR
STARTCHAR quotedblbase
ENCODING 8222
SWIDTH 600 0
DWIDTH 6 0
BBX 6 11 0 -2
BITMAP
00
00
00
00
00
00
00
00
F0
50
00
ENDCHAR
STARTCHAR ellipsis
ENCODING 8230
SWIDTH 600 0
DWIDTH 6 0
BBX 6 11 0 -2
BITMAP
00
00
00
00
00
00
00
A8
00
00
00
ENDCHAR
STARTCHAR Euro
ENCODING 8364
SWIDTH 600 0
DWIDTH 6 0
BBX 6 11 0 -2
BITMAP
00
00
38
40
F0
40
E0
40
38
00
00
ENDCHAR
STARTCHAR uni2225
ENCODING 8741
SWIDTH 600 0
DWIDTH 6 0
BBX 6 11 0 -2
BITMAP
00
50
50
50
50
50
50
50
50
50
50
ENDCHAR
STARTCHAR uni2298
ENCODING 8856
SWIDTH 600 0
DWIDTH 6 0
BBX 6 11 0 -2
BITMAP
00
00
00
00
F8
98
A8
C8
F8
00
00
ENDCHAR
STARTCHAR uni2387
ENCODING 9095
SWIDTH 600 0
DWIDTH 6 0
BBX 6 11 0 -2
BITMAP
00
00
10
08
7C
48
50
40
40
DC
00
ENDCHAR
STARTCHAR uni240A
ENCODING 9226
SWIDTH 600 0
DWIDTH 6 0
BBX 6 11 0 -2
BITMAP
00
00
40
40
60
1C
18
10
00
00
00
ENDCHAR
STARTCHAR uni25B6
ENCODING 9654
SWIDTH 600 0
DWIDTH 6 0
BBX 6 11 0 -2
BITMAP
00
00
80
C0
E0
F0
F0
E0
C0
80
00
ENDCHAR
STARTCHAR uni25B8
ENCODING 9656
SWIDTH 600 0
DWIDTH 6 0
BBX 6 11 0 -2
BITMAP
00
00
00
80
C0
E0
E0
C0
80
00
00
ENDCHAR
STARTCHAR uni25BE
ENCODING 9662
SWIDTH 600 0
DWIDTH 6 0
BBX 6 11 0 -2
BITMAP
00
00
00
00
FC
78
30
00
00
00
00
ENDCHAR
STARTCHAR uni25C0
ENCODING 9664
SWIDTH 600 0
DWIDTH 6 0
BBX 6 11 0 -2
BITMAP
00
00
04
0C
1C
3C
3C
1C
0C
04
00
ENDCHAR
STARTCHAR H18533
ENCODING 9679
SWIDTH 600 0
DWIDTH 6 0
BBX 6 11 0 -2
BITMAP
00
00
00
00
78
78
78
78
00
00
00
ENDCHAR
STARTCHAR uni2934
ENCODING 10548
SWIDTH 600 0
DWIDTH 6 0
BBX 6 11 0 -2
BITMAP
00
00
10
38
54
10
10
10
E0
00
00
ENDCHAR
STARTCHAR uniFB1D
ENCODING 64285
SWIDTH 600 0
DWIDTH 6 0
BBX 6 11 0 -2
BITMAP
00
00
00
30
10
10
00
00
00
20
00
ENDCHAR
STARTCHAR uniFB2A
ENCODING 64298
SWIDTH 600 0
DWIDTH 6 0
BBX 6 11 0 -2
BITMAP
00
08
00
A8
A8
E8
88
F0
00
00
00
ENDCHAR
STARTCHAR uniFB2B
ENCODING 64299
SWIDTH 600 0
DWIDTH 6 0
BBX 6 11 0 -2
BITMAP
00
80
00
A8
A8
E8
88
F0
00
00
00
ENDCHAR
STARTCHAR uniFB2C
ENCODING 64300
SWIDTH 600 0
DWIDTH 6 0
BBX 6 11 0 -2
BITMAP
00
08
00
A8
A8
E8
B8
F0
00
00
00
ENDCHAR
STARTCHAR uniFB2D
ENCODING 64301
SWIDTH 600 0
DWIDTH 6 0
BBX 6 11 0 -2
BITMAP
00
80
00
A8
A8
E8
B8
F0
00
00
00
ENDCHAR
STARTCHAR uniFB2E
ENCODING 64302
SWIDTH 600 0
DWIDTH 6 0
BBX 6 11 0 -2
BITMAP
00
00
00
48
68
30
58
48
00
38
00
ENDCHAR
STARTCHAR uniFB2F
ENCODING 64303
SWIDTH 600 0
DWIDTH 6 0
BBX 6 11 0 -2
BITMAP
00
00
00
48
68
30
58
48
00
38
10
ENDCHAR
STARTCHAR uniFB30
ENCODING 64304
SWIDTH 600 0
DWIDTH 6 0
BBX 6 11 0 -2
BITMAP
00
00
00
48
68
30
58
48
00
10
00
ENDCHAR
STARTCHAR uniFB31
ENCODING 64305
SWIDTH 600 0
DWIDTH 6 0
BBX 6 11 0 -2
BITMAP
00
00
00
78
08
28
08
7C
00
00
00
ENDCHAR
STARTCHAR uniFB32
ENCODING 64306
SWIDTH 600 0
DWIDTH 6 0
BBX 6 11 0 -2
BITMAP
00
00
00
18
08
28
18
28
00
00
00
ENDCHAR
STARTCHAR uniFB33
ENCODING 64307
SWIDTH 600 0
DWIDTH 6 0
BBX 6 11 0 -2
BITMAP
00
00
00
7C
08
28
08
08
00
00
00
ENDCHAR
STARTCHAR uniFB34
ENCODING 64308
SWIDTH 600 0
DWIDTH 6 0
BBX 6 11 0 -2
BITMAP
00
00
00
78
08
58
48
48
00
00
00
ENDCHAR
STARTCHAR uniFB35
ENCODING 64309
SWIDTH 600 0
DWIDTH 6 0
BBX 6 11 0 -2
BITMAP
00
00
00
30
10
30
10
10
00
00
00
ENDCHAR
STARTCHAR uniFB36
ENCODING 64310
SWIDTH 600 0
DWIDTH 6 0
BBX 6 11 0 -2
BITMAP
00
00
00
30
18
30
10
10
00
00
00
ENDCHAR
STARTCHAR uniFB37
ENCODING 64311
SWIDTH 600 0
DWIDTH 6 0
BBX 6 11 0 -2
BITMAP
00
00
00
00
00
00
00
00
00
00
00
ENDCHAR
STARTCHAR uniFB38
ENCODING 64312
SWIDTH 600 0
DWIDTH 6 0
BBX 6 11 0 -2
BITMAP
00
00
00
B8
88
A8
88
F8
00
00
00
ENDCHAR
STARTCHAR uniFB39
ENCODING 64313
SWIDTH 600 0
DWIDTH 6 0
BBX 6 11 0 -2
BITMAP
00
00
00
30
10
50
00
00
00
00
00
ENDCHAR
STARTCHAR uniFB3A
ENCODING 64314
SWIDTH 600 0
DWIDTH 6 0
BBX 6 11 0 -2
BITMAP
00
00
00
78
08
28
08
08
08
08
00
ENDCHAR
STARTCHAR uniFB3B
ENCODING 64315
SWIDTH 600 0
DWIDTH 6 0
BBX 6 11 0 -2
BITMAP
00
00
00
78
08
28
08
78
00
00
00
ENDCHAR
STARTCHAR uniFB3C
ENCODING 64316
SWIDTH 600 0
DWIDTH 6 0
BBX 6 11 0 -2
BITMAP
00
40
40
78
08
58
30
20
00
00
00
ENDCHAR
STARTCHAR uniFB3E
ENCODING 64318
SWIDTH 600 0
DWIDTH 6 0
BBX 6 11 0 -2
BITMAP
00
00
00
B8
E8
D8
88
B8
00
00
00
ENDCHAR
STARTCHAR uniFB3F
ENCODING 64319
SWIDTH 600 0
DWIDTH 6 0
BBX 6 11 0 -2
BITMAP
00
00
00
00
00
00
00
00
00
00
00
ENDCHAR
STARTCHAR uniFB40
ENCODING 64320
SWIDTH 600 0
DWIDTH 6 0
BBX 6 11 0 -2
BITMAP
00
00
00
30
10
30
10
30
00
00
00
ENDCHAR
STARTCHAR uniFB41
ENCODING 64321
SWIDTH 600 0
DWIDTH 6 0
BBX 6 11 0 -2
BITMAP
00
00
00
F8
48
58
48
70
00
00
00
ENDCHAR
STARTCHAR uniFB42
ENCODING 64322
SWIDTH 600 0
DWIDTH 6 0
BBX 6 11 0 -2
BITMAP
00
00
00
00
00
00
00
00
00
00
00
ENDCHAR
STARTCHAR uniFB43
ENCODING 64323
SWIDTH 600 0
DWIDTH 6 0
BBX 6 11 0 -2
BITMAP
00
00
00
78
48
58
08
08
08
08
00
ENDCHAR
STARTCHAR uniFB44
ENCODING 64324
SWIDTH 600 0
DWIDTH 6 0
BBX 6 11 0 -2
BITMAP
00
00
00
78
48
58
08
78
00
00
00
ENDCHAR
STARTCHAR uniFB46
ENCODING 64326
SWIDTH 600 0
DWIDTH 6 0
BBX 6 11 0 -2
BITMAP
00
00
00
48
68
B0
18
78
00
00
00
ENDCHAR
STARTCHAR uniFB47
ENCODING 64327
SWIDTH 600 0
DWIDTH 6 0
BBX 6 11 0 -2
BITMAP
00
00
00
F8
08
58
48
50
40
40
00
ENDCHAR
STARTCHAR uniFB48
ENCODING 64328
SWIDTH 600 0
DWIDTH 6 0
BBX 6 11 0 -2
BITMAP
00
00
00
78
08
28
08
08
00
00
00
ENDCHAR
STARTCHAR uniFB49
ENCODING 64329
SWIDTH 600 0
DWIDTH 6 0
BBX 6 11 0 -2
BITMAP
00
00
00
A8
A8
E8
B8
F0
00
00
00
ENDCHAR
STARTCHAR uniFB4A
ENCODING 64330
SWIDTH 600 0
DWIDTH 6 0
BBX 6 11 0 -2
BITMAP
00
00
00
F8
48
58
48
C8
00
00
00
ENDCHAR
STARTCHAR uniFB4B
ENCODING 64331
SWIDTH 600 0
DWIDTH 6 0
BBX 6 11 0 -2
BITMAP
00
10
00
30
10
10
10
10
00
00
00
ENDCHAR
STARTCHAR uniFB4C
ENCODING 64332
SWIDTH 600 0
DWIDTH 6 0
BBX 6 11 0 -2
BITMAP
00
38
00
78
08
08
08
7C
00
00
00
ENDCHAR
STARTCHAR uniFB4D
ENCODING 64333
SWIDTH 600 0
DWIDTH 6 0
BBX 6 11 0 -2
BITMAP
00
38
00
78
08
08
08
78
00
00
00
ENDCHAR
STARTCHAR uniFB4E
ENCODING 64334
SWIDTH 600 0
DWIDTH 6 0
BBX 6 11 0 -2
BITMAP
00
38
00
78
48
68
08
78
00
00
00
ENDCHAR
ENDFONT
